<svg width="302" height="31" viewBox="0 0 302 31" fill="none" xmlns="http://www.w3.org/2000/svg">
<g clip-path="url(#clip0_536_55)">
<path d="M39.4407 0.02034L33.8127 27.8248C29.216 30.0522 24.5527 30.0522 20.4495 30.0522C17.6177 30.0522 13.6879 29.2831 9.15798 29.4165C3.59667 29.5765 0.0625 30.688 0.0625 30.688L39.4407 0.02034Z" fill="#494949"/>
<path d="M33.7771 27.8515L39.5385 0.00250244C39.454 0.0469612 39.374 0.0958658 39.2895 0.140325L39.4407 0.0247318C34.844 2.25212 28.9182 3.43027 24.7394 2.51887C22.0054 1.91423 19.147 1.10508 13.2967 1.54078C8.77122 1.87422 5.68605 3.04793 5.68605 3.04793L0.0625 30.6879L18.1912 16.5723H30.6386L27.9491 29.612C28.4825 29.6876 31.1898 28.8473 31.8567 28.6339C31.8478 28.6339 31.8433 28.6339 31.8344 28.6428C30.0962 29.2163 34.6618 27.9359 33.7727 27.8515H33.7771ZM23.9837 12.0553L33.0214 5.01745L31.5721 12.0553H23.9837Z" fill="url(#paint0_linear_536_55)"/>
<path d="M27.8866 2.84329C26.5396 2.85663 24.0234 2.34091 22.1963 1.96301C20.2803 1.56288 17.6575 1.27835 14.5501 1.36726C10.0201 1.49619 6.3615 2.63878 5.73024 2.78105H5.67689V2.79439C5.65022 2.79884 5.64133 2.80328 5.64133 2.80328L0 30.9323C1.12026 30.4344 1.75597 30.3055 2.3161 30.181C3.01849 30.0343 3.57417 29.9231 4.32546 29.812C4.32546 29.812 4.4366 29.2251 4.60997 28.3182H6.47708L8.73539 16.5677H17.653L23.7078 12.0551H9.60226L10.7314 6.1777H23.4678L27.8866 2.83885V2.84329Z" fill="#494949"/>
<path d="M53.0046 29.3186C52.32 29.2653 51.6398 29.1852 50.9419 29.1852C50.2439 29.1852 49.5238 29.2653 48.8125 29.3186L54.4005 3.91487H68.4305C68.2882 4.28832 68.1193 4.68401 68.0348 5.06191C67.9503 5.43091 67.9459 5.8266 67.9192 6.20005C66.2522 6.01777 61.0998 5.83104 58.1614 5.83104L56.4543 13.6202H60.2107C61.2999 13.6202 62.4424 13.5135 63.6427 13.3801C63.5004 13.7536 63.3315 14.1537 63.247 14.5227C63.167 14.8962 63.1625 15.2963 63.1359 15.6653C61.9889 15.5586 60.8953 15.4252 59.7795 15.4252H56.0498L53.0002 29.323L53.0046 29.3186Z" fill="#494949"/>
<path d="M70.1413 6.23117C70.8259 6.28897 71.5105 6.36899 72.2085 6.36899C72.9064 6.36899 73.6221 6.28897 74.3334 6.23117L70.2702 25.4018C69.5856 25.3484 68.9055 25.264 68.2075 25.264C67.5096 25.264 66.7894 25.344 66.0781 25.4018L70.1369 6.23117H70.1413Z" fill="#494949"/>
<path d="M77.9293 6.23117H80.6944C83.744 10.5615 87.007 14.8073 89.9899 19.3109L92.7639 6.23117C93.1151 6.28897 93.5018 6.31564 93.8619 6.31564C94.222 6.31564 94.6221 6.28897 94.9955 6.23117L90.9368 25.4018L88.5674 25.3707C86.0868 21.7695 83.8018 18.3284 81.3479 15.0029L78.9784 11.8196L76.1111 25.344C75.7554 25.3173 75.3731 25.264 75.013 25.264C74.653 25.264 74.2484 25.3173 73.875 25.344L77.9248 6.23117H77.9293Z" fill="#494949"/>
<path d="M98.7697 17.8571L102.771 11.3484L103.882 17.8571H98.7697ZM104.158 19.5599C104.518 21.4316 104.704 23.33 104.909 25.4018C105.731 25.3484 106.527 25.264 107.341 25.264C108.154 25.264 108.919 25.344 109.719 25.4018L106.034 5.97775C105.66 6.03555 105.313 6.06222 104.953 6.06222C104.593 6.06222 104.26 6.03555 103.909 5.97775L91.8125 25.3484C92.2704 25.3218 92.7238 25.2684 93.1728 25.2684C93.6218 25.2684 94.0264 25.3218 94.4665 25.3484C95.4045 23.4234 96.4714 21.6895 97.6494 19.5643H104.158V19.5599Z" fill="#494949"/>
<path d="M115.159 6.23117H117.929C120.978 10.5615 124.241 14.8073 127.229 19.3109L129.998 6.23117C130.349 6.28897 130.736 6.31564 131.096 6.31564C131.456 6.31564 131.856 6.28897 132.234 6.23117L128.171 25.4018L125.802 25.3707C123.326 21.7695 121.036 18.3284 118.587 15.0029L116.213 11.8196L113.345 25.344C112.99 25.3173 112.612 25.264 112.247 25.264C111.883 25.264 111.483 25.3173 111.109 25.344L115.159 6.23117Z" fill="#494949"/>
<path d="M146.91 22.1607L145.786 24.5615C143.923 25.424 141.869 25.7619 139.998 25.7619C134.018 25.7619 130.275 22.0718 131.484 16.3411C133.031 9.04986 138.766 5.72435 144.856 5.72435C146.701 5.72435 148.835 6.20006 150.267 7.09368C149.818 8.0451 149.444 9.00096 149.013 9.97461H148.622C147.911 8.46301 146.346 7.40044 144.528 7.40044C139.891 7.40044 137.077 11.8463 136.21 15.9499C135.196 20.7292 136.832 24.0814 141.136 24.0814C142.869 24.0814 145.07 23.1877 146.581 21.9829L146.91 22.1519V22.1607Z" fill="#494949"/>
<path d="M152.757 6.23117C153.442 6.28897 154.127 6.36899 154.825 6.36899C155.523 6.36899 156.238 6.28897 156.95 6.23117L152.891 25.4018C152.202 25.3484 151.522 25.264 150.828 25.264C150.135 25.264 149.41 25.344 148.703 25.4018L152.762 6.23117H152.757Z" fill="#494949"/>
<path d="M161.464 17.8571L165.469 11.3484L166.581 17.8571H161.464ZM166.856 19.5599C167.216 21.4316 167.399 23.33 167.608 25.4018C168.426 25.3484 169.226 25.264 170.039 25.264C170.853 25.264 171.613 25.344 172.413 25.4018L168.728 5.97775C168.354 6.03555 168.012 6.06222 167.652 6.06222C167.292 6.06222 166.959 6.03555 166.607 5.97775L154.516 25.3484C154.965 25.3218 155.423 25.2684 155.872 25.2684C156.321 25.2684 156.725 25.3218 157.17 25.3484C158.112 23.4234 159.175 21.6895 160.353 19.5643H166.861L166.856 19.5599Z" fill="#494949"/>
<path d="M178.009 23.25C180.437 23.25 182.548 23.0544 184.487 22.8543C184.349 23.25 184.175 23.6679 184.095 24.0591C184.015 24.4459 184.006 24.8683 183.98 25.264H173.391L177.418 6.23117C178.107 6.28897 178.783 6.36899 179.485 6.36899C180.188 6.36899 180.904 6.28897 181.61 6.23117L178.009 23.25Z" fill="#494949"/>
<path d="M198.712 17.2303L203.66 8.96538L204.701 17.2303H198.712ZM204.985 18.853C205.341 20.6269 206.261 27.3535 206.465 29.3186C207.288 29.2608 208.088 29.1852 208.902 29.1852C209.715 29.1852 210.475 29.2608 211.275 29.3186L206.928 3.86597C206.554 3.91932 206.212 3.95044 205.847 3.95044C205.483 3.95044 205.158 3.91932 204.803 3.86597L188.781 29.2208C189.239 29.1941 189.697 29.1452 190.142 29.1452C190.586 29.1452 190.995 29.1986 191.435 29.2208C192.373 27.3891 196.543 20.7914 197.721 18.7774L204.985 18.853Z" fill="#494949"/>
<path d="M228.996 24.5082C226.333 25.2062 223.728 25.7663 221.27 25.7663C215.375 25.7663 210.752 22.8009 212.139 16.2344C213.614 9.2766 219.451 5.72879 225.906 5.72879C228.307 5.72879 230.436 6.23117 232.281 7.43156C231.699 8.32518 231.214 9.30327 230.898 10.2547H230.507C229.618 8.38298 227.813 7.40488 225.608 7.40488C220.936 7.40488 217.753 11.6196 216.762 16.3144C215.735 21.1871 217.575 24.0858 221.821 24.0858C223.221 24.0858 224.306 23.6946 225.062 23.2989L226.617 16.0877C227.302 16.141 227.987 16.2255 228.68 16.2255C229.374 16.2255 230.094 16.141 230.805 16.0877L228.996 24.5037V24.5082Z" fill="#494949"/>
<path d="M246.624 6.23118C246.482 6.62241 246.313 7.04477 246.229 7.43156C246.149 7.81835 246.144 8.24071 246.118 8.63195C244.459 8.40965 242.606 8.18292 239.743 8.24071L238.471 14.2515H241.379C242.637 14.2515 243.806 14.1359 244.868 13.9981C244.735 14.3849 244.557 14.8073 244.473 15.1985C244.388 15.5897 244.384 16.0077 244.357 16.3944C243.357 16.2566 242.228 16.1455 240.97 16.1455H238.067L236.564 23.2455C239.418 23.2144 241.348 23.0766 243.103 22.8499C242.966 23.2455 242.788 23.6635 242.708 24.0547C242.623 24.4415 242.623 24.8638 242.597 25.2595H231.945L235.977 6.22673H246.624V6.23118Z" fill="#494949"/>
<path d="M249.382 6.23117H252.148C255.202 10.5615 258.46 14.8073 261.447 19.3109L264.217 6.23117C264.568 6.28897 264.955 6.31564 265.315 6.31564C265.675 6.31564 266.075 6.28897 266.453 6.23117L262.394 25.4018L260.025 25.3707C257.549 21.7695 255.259 18.3284 252.805 15.0029L250.436 11.8196L247.564 25.344C247.209 25.3173 246.831 25.264 246.466 25.264C246.102 25.264 245.697 25.3173 245.328 25.344L249.378 6.23117H249.382Z" fill="#494949"/>
<path d="M281.791 22.1607L280.667 24.5615C278.813 25.424 276.755 25.7619 274.874 25.7619C268.9 25.7619 265.152 22.0718 266.37 16.3411C267.913 9.04986 273.643 5.72435 279.738 5.72435C281.578 5.72435 283.716 6.20006 285.143 7.09368C284.694 8.0451 284.325 9.00096 283.894 9.97461H283.507C282.792 8.46301 281.231 7.40044 279.413 7.40044C274.772 7.40044 271.962 11.8463 271.091 15.9499C270.078 20.7292 271.714 24.0814 276.021 24.0814C277.755 24.0814 279.951 23.1877 281.462 21.9829L281.791 22.1519V22.1607Z" fill="#494949"/>
<path d="M289.592 17.3236C288.262 13.7225 287.218 9.95238 285.938 6.23563C286.76 6.29342 287.582 6.37345 288.423 6.37345C289.263 6.37345 290.121 6.29342 290.965 6.23563C291.392 7.7739 291.854 9.56114 292.29 11.2061C292.708 12.7711 293.09 14.1404 293.339 14.5628C294.677 13.2468 297.731 8.60972 299.292 6.23563C299.732 6.29342 300.168 6.3201 300.643 6.3201C301.119 6.3201 301.541 6.29342 302.004 6.23563C299.234 9.81456 296.424 13.1934 293.904 16.7724L292.081 25.4062C291.392 25.3529 290.708 25.2684 290.014 25.2684C289.321 25.2684 288.6 25.3484 287.889 25.4062L289.596 17.3281L289.592 17.3236Z" fill="#494949"/>
<path d="M230.744 16.4031H225.076C223.818 16.4031 222.653 16.5098 221.586 16.6565C221.724 16.2609 221.933 15.6874 222.017 15.2962C222.102 14.9005 222.111 14.3449 222.137 13.9537C223.137 14.0915 224.302 14.1404 225.556 14.1404H231.224L230.739 16.3987L230.744 16.4031Z" fill="#A68C38"/>
</g>
<defs>
<linearGradient id="paint0_linear_536_55" x1="12.6255" y1="5.62662" x2="40.7591" y2="32.4503" gradientUnits="userSpaceOnUse">
<stop stop-color="#AF9546"/>
<stop offset="0.22" stop-color="#DDD2B7"/>
<stop offset="0.39" stop-color="#C8B57B"/>
<stop offset="0.54" stop-color="#BAA460"/>
<stop offset="0.7" stop-color="#AF9649"/>
<stop offset="0.86" stop-color="#A88E3C"/>
<stop offset="1" stop-color="#A68C38"/>
</linearGradient>
<clipPath id="clip0_536_55">
<rect width="302" height="30.93" fill="white" transform="translate(0 0.00250244)"/>
</clipPath>
</defs>
</svg>
