<svg width="277" height="24" viewBox="0 0 277 24" fill="none" xmlns="http://www.w3.org/2000/svg">
<path d="M266.966 8.85779C269.134 9.23082 271.256 9.93024 273.261 10.8395C274.054 11.1892 274.846 11.5622 275.546 12.0984C275.919 12.3782 276.152 12.7979 276.152 13.2875C276.152 14.22 275.429 15.1293 274.45 15.1293C273.867 15.1293 273.517 14.9194 272.725 14.1501C271.069 12.5414 269.134 11.4223 266.966 10.583V20.608C266.966 21.7737 266.337 22.24 265.218 22.24C264.098 22.24 263.516 21.7504 263.516 20.608V3.65877C263.516 2.49307 264.145 2.02679 265.287 2.02679C266.407 2.02679 266.966 2.51639 266.966 3.65877V8.85779Z" fill="#444444"/>
<path d="M242.46 6.2C242.46 7.17919 241.644 8.04181 240.664 8.04181C240.058 8.04181 239.615 7.64547 239.079 7.01599C237.843 5.61715 236.491 4.54471 234.859 3.63546C234.393 3.37901 234.067 3.1925 234.067 2.79616C234.067 2.42314 234.393 2.09674 234.766 2.09674C235.582 2.09674 238.17 3.09924 238.986 3.47227C239.872 3.8686 240.758 4.28826 241.574 4.82448C242.063 5.15087 242.46 5.57053 242.46 6.2ZM235.022 21.8204C233.973 21.8204 233.367 20.8179 233.367 19.862C233.367 18.5797 234.206 18.3233 235.862 18.0668C237.447 17.8104 238.963 17.3907 240.455 16.7846C242.04 16.1318 243.579 15.3391 244.954 14.3366C247.192 12.7279 249.221 10.7462 250.573 8.32158C250.736 8.01849 250.923 7.73873 251.319 7.73873C251.715 7.73873 252.065 8.04181 252.065 8.43815C252.065 8.74123 251.692 9.51059 251.296 10.2566C250.27 12.215 248.941 13.9402 247.379 15.4557C245.001 17.7637 242.227 19.3724 239.149 20.608C237.797 21.1443 235.978 21.8204 235.022 21.8204Z" fill="#444444"/>
<path d="M219.384 8.53144V20.9811C219.384 22.1468 218.731 22.5898 217.612 22.5898C216.516 22.5898 215.933 22.1002 215.933 20.9811V10.5598C214.278 11.3991 212.553 12.1218 210.781 12.6813C210.035 12.9145 207.447 13.6605 206.934 13.6605C206.561 13.6605 206.258 13.3108 206.258 12.9378C206.258 12.5181 206.584 12.3549 206.957 12.2384C209.848 11.3524 212.599 9.97691 215.047 8.20504C217.029 6.78289 218.871 5.01103 220.27 3.02934C220.736 2.35323 221.225 1.70044 222.111 1.70044C223.137 1.70044 224.163 2.51643 224.163 3.58887C224.163 4.07847 224.07 4.26498 223.277 5.10428C222.344 6.08347 220.456 7.71545 219.384 8.53144Z" fill="#444444"/>
<path d="M198.05 0.83783C199.356 0.83783 200.428 1.93359 200.428 3.21586C200.428 4.52144 199.356 5.59388 198.05 5.59388C196.768 5.59388 195.672 4.52144 195.672 3.21586C195.672 1.93359 196.768 0.83783 198.05 0.83783ZM198.05 2.07347C197.421 2.07347 196.908 2.58638 196.908 3.21586C196.908 3.84533 197.421 4.38156 198.05 4.38156C198.68 4.38156 199.216 3.84533 199.216 3.21586C199.216 2.58638 198.68 2.07347 198.05 2.07347ZM192.478 8.34493V19.116C192.478 21.0977 191.989 21.9603 189.867 21.9603C188.585 21.9603 187.256 21.6339 186.067 21.1909C185.694 21.0511 185.344 20.8179 185.344 20.375C185.344 19.9553 185.647 19.6056 186.067 19.6056C186.277 19.6056 186.44 19.6522 186.906 19.8154C187.303 19.9553 187.746 20.0952 188.189 20.0952C188.958 20.0952 189.028 19.559 189.028 18.9295V8.34493H182.29C181.824 8.34493 181.381 8.1118 181.381 7.59889C181.381 7.06267 181.824 6.85284 182.29 6.85284H189.028V3.79871C189.028 2.63301 189.657 2.16673 190.776 2.16673C191.895 2.16673 192.478 2.67964 192.478 3.79871V6.85284H199.263C199.706 6.85284 200.149 7.06267 200.149 7.59889C200.149 8.1118 199.706 8.34493 199.263 8.34493H192.478ZM200.522 17.6938C200.522 18.6497 199.566 19.3491 198.656 19.3491C197.654 19.3491 197.421 18.6497 197.094 17.5773C196.791 16.6214 195.952 14.6397 195.509 13.6605C195.229 13.031 194.926 12.4482 194.577 11.8887C194.32 11.469 194.25 11.2592 194.25 11.1193C194.25 10.6763 194.693 10.3499 195.113 10.3499C195.439 10.3499 195.672 10.6064 195.882 10.8395C196.605 11.6089 197.281 12.4249 197.91 13.2642C199.076 14.8262 200.522 16.7613 200.522 17.6938ZM182.686 19.559C181.847 19.559 181.008 18.8829 181.008 17.9736C181.008 17.3675 181.427 16.9245 181.824 16.5048C183.129 15.1759 184.621 13.0777 185.321 11.3524C185.484 10.9794 185.694 10.6064 186.16 10.6064C186.58 10.6064 186.93 10.9561 186.93 11.3758C186.93 12.3083 185.857 15.1759 185.437 16.1085C185.064 16.9478 184.668 17.8337 184.179 18.5798C183.829 19.116 183.386 19.559 182.686 19.559Z" fill="#444444"/>
<path d="M160.469 2.8661C160.469 2.39982 160.818 2.09674 161.285 2.09674C162.287 2.09674 165.248 2.79616 166.274 3.09924C167.16 3.3557 168.186 3.68209 168.186 4.77785C168.186 5.61715 167.579 6.45646 166.693 6.45646C166.274 6.45646 165.947 6.24663 165.621 6.01349C164.315 5.08093 162.94 4.26494 161.401 3.72872C160.772 3.49558 160.469 3.33238 160.469 2.8661ZM173.921 4.82448C174.294 4.82448 174.76 5.26744 175.32 5.78035C175.786 6.22332 176.299 6.78285 176.299 7.15588C176.299 7.64547 175.856 8.04181 175.39 8.04181C174.947 8.04181 174.69 7.64547 174.48 7.29576C174.177 6.82948 173.874 6.38651 173.501 5.99018C173.361 5.82698 173.245 5.66378 173.245 5.45396C173.245 5.08093 173.571 4.82448 173.921 4.82448ZM171.613 5.71041C172.056 5.71041 172.732 6.45646 173.081 6.82948C173.548 7.34239 174.107 7.99518 174.107 8.43815C174.107 8.92774 173.641 9.32408 173.151 9.32408C172.685 9.32408 172.475 8.92774 172.289 8.57803C171.962 7.97187 171.589 7.38902 171.17 6.85279C171.053 6.6896 170.96 6.54971 170.96 6.33989C170.96 5.99018 171.263 5.71041 171.613 5.71041ZM159.629 20.7946C159.629 20.3516 159.932 19.9786 160.375 19.9786C160.492 19.9786 160.585 19.9786 160.702 20.0019C161.261 20.0951 161.844 20.1418 162.404 20.1418C164.735 20.1418 165.528 18.9528 165.528 16.7379C165.528 13.8936 163.686 11.399 161.518 9.72042C161.051 9.37071 160.842 9.16088 160.842 8.78786C160.842 8.34489 161.215 7.92524 161.681 7.92524C162.427 7.92524 164.455 9.55722 165.038 10.0934C167.113 11.9352 169.002 14.4998 169.002 17.3907C169.002 21.2842 165.621 21.7504 162.52 21.7504C161.798 21.7504 161.075 21.7271 160.352 21.6339C159.909 21.5639 159.629 21.2375 159.629 20.7946ZM175.879 17.7171C175.879 18.6497 174.97 19.3491 174.084 19.3491C173.571 19.3491 173.081 19.1393 172.872 18.6497C172.662 18.1368 172.126 16.5048 171.916 15.8287C171.613 14.8495 171.076 13.8936 170.54 13.0077C170.354 12.6813 170.284 12.5181 170.284 12.3316C170.284 11.9119 170.68 11.5622 171.1 11.5622C171.403 11.5622 171.613 11.772 171.823 11.9819C172.732 12.8911 173.571 13.8703 174.364 14.8961C174.9 15.5722 175.879 16.8079 175.879 17.7171ZM156.156 20.4215C155.223 20.4215 154.547 19.4423 154.547 18.5564C154.547 17.857 155.083 17.4607 155.596 17.0876C157.065 15.9919 158.417 14.6164 159.396 13.0543C159.559 12.7745 159.769 12.5647 160.119 12.5647C160.585 12.5647 161.005 12.9144 161.005 13.3807C161.005 14.0801 159.816 16.1784 159.419 16.8545C158.813 17.8803 158.137 18.9061 157.345 19.7921C157.018 20.1418 156.622 20.4215 156.156 20.4215Z" fill="#444444"/>
<path d="M129.276 1.53723C129.439 1.53723 129.766 1.72374 130.162 2.07345C131.538 3.23915 132.563 4.33491 133.123 5.12759C133.496 5.66381 133.776 6.13009 133.776 6.50311C133.776 7.50561 132.96 8.41486 131.934 8.41486C131.235 8.41486 131.001 7.99521 130.815 7.38904C130.302 5.66381 129.719 4.03183 128.74 2.46979C128.67 2.35322 128.623 2.25997 128.623 2.12008C128.623 1.79368 128.95 1.53723 129.276 1.53723ZM147.181 6.26997H145.992C145.549 6.26997 145.433 6.38654 145.433 6.82951V7.97189C145.433 8.43817 145.549 8.55474 145.992 8.55474H146.552C147.041 8.55474 147.205 8.13509 147.368 7.38904C147.461 6.92276 147.927 6.61968 148.44 6.61968C149.07 6.61968 149.909 6.96939 149.909 7.69212C149.909 8.18172 149.653 8.85782 149.303 9.25416C148.86 9.76707 148.23 9.83701 147.601 9.83701H144.43C143.335 9.83701 142.565 9.30079 142.565 8.15841V6.64299C142.565 5.50061 143.335 4.96439 144.43 4.96439H145.526C145.969 4.96439 146.086 4.84782 146.086 4.40485V3.84532C146.086 3.40235 145.969 3.28578 145.526 3.28578H142.985C142.588 3.28578 142.192 3.07595 142.192 2.63299C142.192 2.16671 142.588 1.9802 142.985 1.9802H147.181C148.277 1.9802 149.046 2.51642 149.046 3.6588V4.59136C149.046 5.78038 148.277 6.26997 147.181 6.26997ZM138.042 8.53143H138.812C139.231 8.53143 139.394 8.06515 139.534 7.4823C139.651 7.01602 140.001 6.68962 140.537 6.68962C141.073 6.68962 141.866 7.03933 141.866 7.66881C141.866 8.20503 141.609 8.8112 141.26 9.23085C140.887 9.67381 140.374 9.83701 139.814 9.83701H136.457C135.361 9.83701 134.592 9.30079 134.592 8.15841V6.64299C134.592 5.50061 135.361 4.96439 136.457 4.96439H137.786C138.229 4.96439 138.345 4.84782 138.345 4.40485V3.84532C138.345 3.40235 138.229 3.28578 137.786 3.28578H135.011C134.615 3.28578 134.219 3.07595 134.219 2.63299C134.219 2.16671 134.615 1.9802 135.011 1.9802H139.418C140.49 1.9802 141.283 2.51642 141.283 3.6588V4.59136C141.283 5.73375 140.49 6.26997 139.418 6.26997H138.042C137.599 6.26997 137.483 6.38654 137.483 6.82951V7.97189C137.483 8.41486 137.599 8.53143 138.042 8.53143ZM137.483 15.2925V13.1476H135.851C135.454 13.1476 135.058 12.9611 135.058 12.4948C135.058 12.0518 135.454 11.842 135.851 11.842H137.483V11.4457C137.483 10.653 137.879 9.9769 139.045 9.9769C140.164 9.9769 140.56 10.5131 140.56 11.5156V11.842H143.335V11.5389C143.335 10.5131 143.801 9.9769 144.873 9.9769C145.969 9.9769 146.365 10.5597 146.365 11.4224V11.842H148.044C148.44 11.842 148.837 12.0518 148.837 12.4948C148.837 12.9611 148.44 13.1476 148.044 13.1476H146.365V15.2925H149.28C149.676 15.2925 150.072 15.479 150.072 15.9453C150.072 16.4116 149.676 16.5981 149.28 16.5981H145.153C145.386 16.668 145.549 16.8312 145.713 16.9944C146.715 18.0902 147.881 18.8595 149.21 19.5123C149.443 19.6289 149.629 19.7921 149.629 20.0719C149.629 20.4449 149.303 20.7246 148.953 20.7246C148.743 20.7246 148.347 20.6314 147.951 20.5381C146.995 20.305 145.806 19.932 145.223 19.6755C144.477 19.3491 143.171 18.673 143.171 17.7871C143.171 17.2042 143.708 16.738 144.244 16.5981H139.674C140.28 16.738 140.863 17.2042 140.863 17.8803C140.863 18.5098 140.164 19.0227 138.882 19.6056C138.462 19.7921 137.436 20.2117 136.643 20.4449C136.224 20.5614 135.874 20.6547 135.664 20.6547C135.315 20.6547 134.965 20.3516 134.965 20.0019C134.965 19.7221 135.128 19.6056 135.524 19.3491C136.457 18.7663 137.366 18.0902 138.066 17.2275C138.299 16.9478 138.509 16.6913 138.858 16.5981H135.011C134.615 16.5981 134.219 16.4116 134.219 15.9453C134.219 15.479 134.615 15.2925 135.011 15.2925H137.483ZM130.582 19.1626V13.1243C130.582 12.658 130.442 12.5181 129.952 12.5181H129.346C128.95 12.5181 128.553 12.3316 128.553 11.8653C128.553 11.4224 128.95 11.2125 129.346 11.2125H131.538C132.703 11.2125 133.589 11.7488 133.589 12.9844V18.5331C133.706 19.6056 134.219 20.2584 134.918 20.6547C135.921 21.2376 137.366 21.2842 138.602 21.2842H149.536C149.932 21.2842 150.329 21.4707 150.329 21.937C150.329 22.4033 149.932 22.5898 149.536 22.5898H137.459C136.27 22.5898 135.175 22.5431 134.195 22.1934C133.379 21.8903 132.633 21.3541 131.981 20.4449C131.328 21.3774 130.815 21.9603 130.442 22.31C129.952 22.753 129.673 22.8462 129.439 22.8462C128.577 22.8462 128.32 21.867 128.32 21.1676C128.32 20.4915 128.577 20.1418 129.113 19.9087C129.509 19.7455 130.092 19.4657 130.582 19.1626ZM140.56 13.1476V15.2925H143.335V13.1476H140.56Z" fill="#444444"/>
<path d="M113.136 6.5031C112.507 7.55223 111.877 8.60136 111.271 9.67381C112.041 9.18421 112.833 8.90444 113.743 8.90444C115.608 8.90444 117.053 9.90695 117.636 11.6788C118.452 11.3291 121.32 10.1401 121.763 10.1401C122.415 10.1401 122.835 10.7463 122.835 11.3757C122.835 12.285 122.089 12.4482 120.877 12.6813C119.897 12.8678 118.918 13.1709 117.986 13.4973C118.079 14.7329 118.102 16.0152 118.102 17.2742C118.102 18.3233 117.543 18.8129 116.494 18.8129C115.514 18.8129 114.955 18.3 114.955 17.2975C114.955 16.4582 114.955 15.5956 114.978 14.7329C113.626 15.5256 112.134 16.7146 112.134 18.4399C112.134 20.7013 115.165 20.8645 116.82 20.8645C118.452 20.8645 119.827 20.7246 121.156 20.5148C121.529 20.4449 121.902 20.3982 122.019 20.3982C122.532 20.3982 122.882 20.7946 122.882 21.3075C122.882 21.9836 122.415 22.2167 121.809 22.2634C120.224 22.3799 118.568 22.4499 116.96 22.4499C115.118 22.4499 112.787 22.3799 111.295 21.937C109.942 21.5406 109.01 20.5381 109.01 19.0227C109.01 17.2042 110.339 15.8287 111.714 14.8029C112.693 14.0802 113.766 13.404 114.885 12.9378C114.698 11.7954 114.232 10.6064 112.857 10.6064C110.502 10.6064 109.313 13.2642 108.194 15.8054C107.891 16.4815 107.494 17.111 106.678 17.111C105.886 17.111 104.953 16.6214 104.953 15.7354C104.953 15.4324 105.303 14.6164 105.559 14.1268C106.772 11.6788 108.054 9.20753 109.359 6.71293C108.24 6.78287 107.121 6.8295 106.002 6.8295C105.513 6.8295 105.07 6.59636 105.07 6.03682C105.07 5.54723 105.419 5.24415 105.886 5.24415C106.305 5.24415 107.028 5.22083 107.611 5.19752C108.474 5.17421 109.336 5.15089 110.175 5.10426C110.479 4.59136 111.085 3.40234 111.318 2.86612C111.691 2.02682 112.064 1.42065 113.09 1.42065C113.906 1.42065 115.118 1.84031 115.118 2.81949C115.118 3.28577 114.512 4.26496 114.116 4.89444C114.978 4.8245 117.286 4.63799 117.939 4.56804C118.615 4.4981 119.548 4.40485 119.758 4.40485C120.2 4.40485 120.48 4.75456 120.48 5.17421C120.48 5.89694 119.944 5.9902 119.361 6.03682C117.286 6.22334 115.211 6.36322 113.136 6.5031Z" fill="#444444"/>
<path d="M91.0819 21.3308V9.97687H87.8179C87.375 9.97687 86.8621 9.93025 86.8621 9.32408C86.8621 8.74123 87.375 8.67129 87.8179 8.67129H91.0819V2.77285C91.0819 2.32988 91.1285 1.86361 91.5249 1.56052C91.8513 1.30407 92.2709 1.1875 92.6673 1.1875C93.0869 1.1875 93.5066 1.30407 93.8329 1.56052C94.2293 1.86361 94.2759 2.32988 94.2759 2.77285V8.67129H97.5865C98.0295 8.67129 98.5424 8.74123 98.5424 9.32408C98.5424 9.93025 98.0295 9.97687 97.5865 9.97687H94.2759V21.3308H98.1227C98.5657 21.3308 99.0786 21.3774 99.0786 21.9836C99.0786 22.5664 98.5657 22.6364 98.1227 22.6364H86.4191C85.9528 22.6364 85.4399 22.5664 85.4399 21.9836C85.4399 21.3774 85.9528 21.3308 86.4191 21.3308H91.0819ZM84.181 13.5439V21.5639C84.181 21.9836 84.1343 22.3799 83.7613 22.6597C83.4582 22.8928 83.0619 23.0094 82.6656 23.0094C82.1993 23.0094 81.6397 22.8462 81.36 22.4499C81.1735 22.1934 81.1501 21.867 81.1501 21.5639V14.4998C80.3108 15.2225 78.1893 16.7846 77.6764 16.7846C77.3266 16.7846 77.0469 16.4815 77.0469 16.1318C77.0469 15.8287 77.28 15.6189 77.5132 15.4557C79.9378 13.5905 81.7563 11.0027 82.7821 8.13507C82.8521 7.94856 82.922 7.71542 82.922 7.50559C82.922 7.22582 82.6422 7.20251 82.4091 7.20251H78.3525C77.9095 7.20251 77.3733 7.13257 77.3733 6.54972C77.3733 5.94355 77.8862 5.89693 78.3525 5.89693H81.1268V2.6796C81.1268 2.25994 81.1735 1.84029 81.5465 1.56052C81.8729 1.32738 82.2692 1.21081 82.6656 1.21081C83.1551 1.21081 83.7147 1.39733 83.9944 1.79366C84.181 2.05012 84.2043 2.37651 84.2043 2.6796V5.89693H85.2068C85.9062 5.89693 86.5823 6.29326 86.5823 7.06262C86.5823 8.1817 85.3233 9.93025 84.6939 10.8162C85.4865 12.215 86.559 13.404 87.7946 14.4298C88.0044 14.6164 88.2143 14.8029 88.2143 15.106C88.2143 15.479 87.9112 15.7354 87.5615 15.7354C86.9087 15.7354 84.7405 14.0335 84.181 13.5439Z" fill="#444444"/>
<path d="M73.6716 9.6971C73.6716 10.0468 73.3918 10.3732 73.0421 10.3732C72.5292 10.3732 70.1512 9.27745 69.5917 8.99768C67.2369 7.83199 64.8356 6.24663 62.9472 4.24163C62.8306 4.12506 62.7373 4.07843 62.5741 4.07843C62.4109 4.07843 62.2944 4.12506 62.1778 4.26494C60.5458 6.10675 57.8647 7.90193 55.51 9.09094C54.9038 9.39402 52.689 10.4198 52.1062 10.4198C51.7565 10.4198 51.5 10.1168 51.5 9.76705C51.5 9.39402 51.6865 9.27745 52.0829 9.06763C53.9713 8.06513 55.7431 6.80617 57.3052 5.33739C58.2844 4.42814 59.147 3.42564 59.9863 2.37651C60.8023 1.3507 61.2452 1.14087 62.5741 1.14087C64.3227 1.14087 64.6258 1.72372 65.6516 2.98267C67.6566 5.50059 70.2444 7.6921 73.182 9.06763C73.4385 9.1842 73.6716 9.39402 73.6716 9.6971ZM57.6083 8.43815H67.5633C68.0296 8.43815 68.5425 8.48478 68.5425 9.09094C68.5425 9.67379 68.0296 9.74373 67.5633 9.74373H57.6083C57.1653 9.74373 56.6524 9.67379 56.6524 9.09094C56.6524 8.5314 57.1653 8.43815 57.6083 8.43815ZM62.4576 14.2433C61.2219 16.2483 59.8231 18.1834 58.2844 19.9786C61.1986 19.862 64.1362 19.7454 67.0737 19.5822C66.5375 18.5331 65.8614 17.5073 65.1387 16.5514C65.0221 16.3882 64.8822 16.1784 64.8822 15.9453C64.8822 15.5955 65.1853 15.2925 65.535 15.2925C66.0946 15.2925 68.2628 17.111 68.7757 17.5539C69.615 18.3 70.5009 19.1393 71.1537 20.0951C71.3635 20.3982 71.5034 20.7479 71.5034 21.1443C71.5034 22.1235 70.4776 22.8462 69.545 22.8462C68.5192 22.8462 68.2161 22.1701 67.6566 20.8179C65.5117 21.2142 63.3202 21.5406 61.152 21.8437C59.9863 22.0069 55.1836 22.7063 54.3443 22.7063C53.6449 22.7063 53.2252 22.0302 53.2252 21.4007C53.2252 20.7013 53.7148 20.1185 54.4142 20.0951C54.9971 20.0718 55.51 20.0718 56.0462 20.0485C56.9322 18.1368 57.7481 16.2017 58.4709 14.2433H53.132C52.6657 14.2433 52.1528 14.1734 52.1528 13.5905C52.1528 12.9844 52.6657 12.9377 53.132 12.9377H72.0396C72.4826 12.9377 72.9955 12.9844 72.9955 13.5905C72.9955 14.1734 72.4826 14.2433 72.0396 14.2433H62.4576Z" fill="#444444"/>
<path d="M42.1055 8.36821V10.0235H44.67C45.8124 10.0235 46.7217 10.5364 46.7217 11.7954V14.4998C46.7217 15.7587 45.8124 16.2717 44.67 16.2717H42.5485C43.3411 18.6497 45.0897 20.5614 47.3745 21.6106C47.6775 21.7504 47.934 21.9136 47.934 22.2633C47.934 22.6131 47.6542 22.9161 47.3045 22.9161C46.6051 22.9161 44.8799 22.1001 44.2504 21.7504C42.7816 20.9111 41.5226 19.8154 40.4735 18.5098C39.4477 19.8154 38.1887 20.9111 36.72 21.7504C36.1138 22.1001 34.3419 22.9161 33.6658 22.9161C33.3161 22.9161 33.0363 22.6364 33.0363 22.2633C33.0363 21.9136 33.1762 21.7971 33.5726 21.6106C35.8573 20.5381 37.6059 18.7896 38.4219 16.2717H36.4402C35.2978 16.2717 34.3886 15.7587 34.3886 14.4998V11.7954C34.3886 10.5364 35.2978 10.0235 36.4402 10.0235H38.9348V8.36821H36.8832C36.4868 8.36821 36.0905 8.1817 36.0905 7.71542C36.0905 7.64547 36.1138 7.57553 36.1138 7.50559C35.7175 7.78536 34.4352 8.60135 33.9922 8.60135C33.6425 8.60135 33.3394 8.29827 33.3394 7.94856C33.3394 7.6921 33.5026 7.50559 33.6891 7.36571C35.4843 6.03681 36.9298 4.66128 38.1421 2.49308C38.7716 1.37401 39.4244 1.1875 40.6367 1.1875C41.849 1.1875 42.5018 1.39733 43.1313 2.49308C44.2504 4.40483 45.7891 6.03681 47.5843 7.36571C47.7941 7.50559 47.934 7.6921 47.934 7.94856C47.934 8.29827 47.6542 8.60135 47.2812 8.60135C46.8849 8.60135 45.4161 7.6921 44.8799 7.34239C44.9498 7.45896 45.0197 7.57553 45.0197 7.71542C45.0197 8.1817 44.6234 8.36821 44.2271 8.36821H42.1055ZM29.3994 3.89192V21.5173C29.3994 21.9836 29.3527 22.4732 28.9564 22.7763C28.6766 23.0094 28.3502 23.056 28.0005 23.056C27.5576 23.056 27.0913 22.9628 26.8348 22.5897C26.6716 22.3333 26.625 22.0535 26.625 21.7038V3.75204C26.625 2.53971 27.4643 1.98018 28.6067 1.98018H32.3369C32.7799 1.98018 33.2695 2.09675 33.6192 2.37651C33.9223 2.60965 34.0855 2.95936 34.0855 3.28576C34.0855 3.6821 33.9689 4.07843 33.829 4.45146L31.7774 9.74373C31.7308 9.8603 31.7074 9.93025 31.7074 10.0235C31.7074 10.0934 31.7541 10.1634 31.894 10.3266C33.2462 11.9119 34.1088 14.0102 34.1088 16.1085C34.1088 17.7637 33.456 19.1859 31.5909 19.1859H30.1221C29.7491 19.1859 29.4693 18.9061 29.4693 18.5331C29.4693 18.23 29.7258 17.9036 30.0522 17.9036H30.4252C30.7283 17.9036 31.008 17.484 31.078 17.2042C31.1712 16.8079 31.2179 16.2017 31.2179 15.7121C31.2179 13.7304 30.7049 12.3316 29.7724 10.5131C29.6558 10.3033 29.6092 10.1634 29.6092 9.97687C29.6092 9.81368 29.6325 9.65048 29.6791 9.48728L31.1712 4.10175C31.2179 3.93855 31.2645 3.77535 31.2645 3.72872C31.2645 3.44896 31.0547 3.28576 30.7982 3.28576H29.9822C29.5159 3.28576 29.3994 3.44896 29.3994 3.89192ZM36.8132 7.06262H44.1804C44.2737 7.06262 44.3903 7.06262 44.5068 7.08594C43.1779 6.24664 41.9656 5.19751 41.103 4.28826C40.7999 3.96187 40.73 3.91524 40.6367 3.91524C40.5435 3.91524 40.4502 3.98518 40.3103 4.12506C39.2379 5.26745 38.1188 6.20001 36.8132 7.06262ZM42.1055 14.9661H43.1779C43.6442 14.9661 43.7841 14.8262 43.7841 14.3599V11.9352C43.7841 11.469 43.6442 11.3058 43.1779 11.3058H42.1055V14.9661ZM38.9348 14.9661V11.3058H37.9323C37.466 11.3058 37.3028 11.469 37.3028 11.9352V14.3599C37.3028 14.8262 37.466 14.9661 37.9323 14.9661H38.9348Z" fill="#444444"/>
<path d="M5.87513 6.43314V21.4707C5.87513 21.867 5.75856 22.3566 5.57204 22.5897C5.26896 22.9861 4.84931 23.0793 4.31309 23.0793C3.77687 23.0793 3.1707 22.8928 2.96088 22.3566C2.86762 22.1001 2.79768 21.867 2.79768 21.3774V10.8861C2.28477 11.5156 1.81849 12.0984 1.18901 12.7046C1.02582 12.8678 0.862618 12.9611 0.629478 12.9611C0.303082 12.9611 0 12.6813 0 12.3549C0 12.1451 0.093256 11.9819 0.209826 11.8187C2.19152 8.76454 3.3339 5.78035 3.96338 2.56302C4.14989 1.65378 4.52291 1.11755 5.5021 1.11755C6.38803 1.11755 7.53042 1.65378 7.53042 2.65628C7.53042 3.16918 7.04083 4.40483 5.87513 6.43314ZM17.3223 13.3574C18.0917 15.7587 20.0733 18.4865 22.055 20.0951C22.2415 20.235 22.4047 20.4215 22.4047 20.7013C22.4047 21.051 22.125 21.3541 21.752 21.3541C21.5888 21.3541 20.6562 20.8412 20.0733 20.4449C19.8169 20.2583 19.6304 20.1418 19.5138 20.0485C18.1849 19.0693 16.9726 17.9036 15.9468 16.6214V21.494C15.9468 21.8903 15.9001 22.2867 15.6437 22.5897C15.294 22.9861 14.851 23.0793 14.3847 23.0793C13.662 23.0793 13.219 22.8695 12.9859 22.3333C12.8926 22.1001 12.846 21.8903 12.846 21.5406V16.6913C11.6337 18.3233 10.1416 19.7687 8.39304 20.9111C7.85682 21.2608 7.13408 21.6105 6.94757 21.6105C6.57455 21.6105 6.31809 21.3075 6.31809 20.9811C6.31809 20.6547 6.52792 20.4682 6.76106 20.2817C8.78937 18.6497 10.7244 15.8753 11.4705 13.3574H7.20402C6.80769 13.3574 6.41135 13.1476 6.41135 12.7046C6.41135 12.2383 6.80769 12.0518 7.20402 12.0518H12.846V9.83699H10.1649C8.9992 9.83699 8.11327 9.32408 8.11327 8.06512V3.75204C8.11327 2.49308 8.9992 1.98017 10.1649 1.98017H18.6745C19.8169 1.98017 20.7261 2.49308 20.7261 3.75204V8.06512C20.7261 9.32408 19.8169 9.83699 18.6745 9.83699H15.9468V12.0518H21.3556C21.7753 12.0518 22.1483 12.2383 22.1483 12.7046C22.1483 13.1476 21.7753 13.3574 21.3556 13.3574H17.3223ZM16.9026 3.28575H11.8901C11.4239 3.28575 11.2607 3.42564 11.2607 3.89192V7.92524C11.2607 8.39152 11.4239 8.5314 11.8901 8.5314H16.9026C17.3689 8.5314 17.5088 8.39152 17.5088 7.92524V3.89192C17.5088 3.42564 17.3689 3.28575 16.9026 3.28575Z" fill="#444444"/>
</svg>
