<svg width="166" height="120" viewBox="0 0 166 120" fill="none" xmlns="http://www.w3.org/2000/svg">
<path d="M136.953 113.417L108.819 119.167L116.179 107.003C104.425 101.643 93.112 95.4847 82.3564 88.6127C81.9896 88.3805 81.6227 88.1568 81.2587 87.919L80.178 87.1969L78.0224 85.7529L75.8724 84.3088L74.8003 83.5868L73.7452 82.8336L69.5391 79.8237C69.1893 79.5717 68.8395 79.3254 68.4925 79.0705L67.4631 78.2891L65.4098 76.7261C62.6512 74.6789 60.0064 72.4788 57.3417 70.3382C56.0278 69.2396 54.7339 68.1183 53.4314 67.0084C52.7858 66.4506 52.1289 65.9069 51.4918 65.335L49.5893 63.6191L47.6924 61.9032L46.7454 61.0453L45.8183 60.1647L42.1241 56.6451L38.5238 53.0378L37.6279 52.1374L36.752 51.2143L35.0031 49.371C30.359 44.4385 25.9339 39.3362 21.7534 34.0668C17.5729 28.7974 13.6399 23.3637 9.97978 17.78C8.16255 14.9768 6.39934 12.151 4.73568 9.26855C3.0777 6.38609 1.48797 3.46682 0.0859375 0.465438L0.236663 0.380493C2.1705 3.05342 4.26644 5.59894 6.41356 8.08782C8.56353 10.5739 10.7988 12.9835 13.0654 15.3478C17.627 20.0537 22.3905 24.5331 27.3274 28.7804C32.2616 33.0276 37.3692 37.0427 42.6076 40.8312L44.5755 42.2441L45.5595 42.9492L46.5606 43.6316L50.5591 46.3498L54.6201 48.9633L55.6325 49.6145L56.6649 50.2403L58.7238 51.489L60.7799 52.7376C61.4653 53.151 62.1706 53.5361 62.8645 53.9382C64.2609 54.7282 65.643 55.5323 67.0393 56.3082C69.8718 57.806 72.6588 59.352 75.5368 60.7338L77.6754 61.7956L78.7419 62.3251C79.1002 62.4978 79.4642 62.6592 79.8254 62.8263L84.1566 64.8225L85.2373 65.3208L86.335 65.7852L88.5248 66.7139L90.7117 67.6426L91.8038 68.107C92.1707 68.2571 92.5432 68.3958 92.9101 68.5402C103.592 72.796 114.495 76.2815 125.526 78.9884L126.948 64.8989L146.017 86.2824L165.085 107.666L136.95 113.417H136.953Z" fill="#035AAB"/>
</svg>
