<svg width="495" height="47" viewBox="0 0 495 47" fill="none" xmlns="http://www.w3.org/2000/svg">
<path d="M477.514 16.1713C481.978 14.3473 484.33 12.9553 488.314 10.2673C488.986 9.83527 489.658 9.45127 490.474 9.45127C492.538 9.45127 494.266 11.4673 494.266 13.4353C494.266 15.4993 492.634 16.4113 489.898 17.9473C485.866 20.2033 481.882 22.0273 477.514 23.5153V37.6753C477.514 38.9233 478.33 38.9713 479.29 39.0193C480.682 39.0673 482.074 39.0673 483.85 39.0673C485.866 39.0673 486.682 38.8753 486.97 37.8193C487.21 37.0033 487.21 36.2833 487.306 34.1713C487.45 31.1473 487.594 29.5153 490.906 29.5153C493.402 29.5153 494.794 30.8113 494.794 33.2593C494.794 34.7953 494.506 37.7233 494.314 39.2593C494.122 40.9873 493.786 42.9553 492.778 44.3473C491.626 45.9793 489.562 46.0753 487.738 46.1713C485.914 46.2673 484.042 46.2673 482.218 46.2673C480.442 46.2673 475.786 46.2193 474.25 46.0273C473.194 45.8833 472.378 45.6433 471.61 44.9713C470.266 43.7713 470.074 42.0433 470.074 40.3153V4.60327C470.074 1.67527 471.466 1.05127 474.106 1.05127C476.506 1.05127 477.514 2.25127 477.514 4.60327V16.1713ZM463.114 13.9633V43.3393C463.114 46.2193 461.674 46.8913 459.034 46.8913C456.586 46.8913 455.53 45.7393 455.53 43.3393V24.4753C454.378 25.7233 453.514 26.5393 452.17 26.5393C450.01 26.5393 448.57 24.3313 448.57 22.3153C448.57 20.6833 449.29 19.7233 450.346 18.6193C452.794 16.0273 454.186 14.5873 456.106 11.5153C458.026 8.49127 458.65 6.95527 459.994 3.73927C460.618 2.25127 461.434 1.33927 463.162 1.33927C464.89 1.33927 467.146 2.20327 467.146 4.26727C467.146 6.04327 464.794 11.0353 463.114 13.9633Z" fill="#035AAB"/>
<path d="M424.813 30.5232C425.005 28.9392 425.149 27.3072 425.149 25.6752V8.20322C425.149 3.11522 426.157 2.10722 431.197 2.10722H437.629C442.717 2.10722 443.677 3.11522 443.677 8.20322V40.6512C443.677 45.8352 442.621 46.7472 437.005 46.7472H436.237C433.645 46.7472 431.005 46.6032 431.005 43.0992C431.005 41.2272 432.061 39.6912 434.029 39.6912C434.365 39.6912 435.613 39.7392 435.949 39.7392C436.861 39.7392 437.101 39.3552 437.101 38.4912V32.0592H431.245C430.957 35.5632 430.189 39.3552 428.941 42.6192C427.933 45.3072 427.021 46.6512 425.197 46.6512C423.709 46.6512 422.077 45.9312 421.357 44.5872C420.781 45.0192 420.061 45.3552 419.341 45.3552C418.189 45.3552 417.421 44.5872 416.365 43.3392C415.789 42.6672 415.165 41.8992 414.349 41.0352C413.725 40.3632 413.005 39.5472 413.005 38.5392C413.005 37.0512 414.733 35.8032 416.077 35.8032C417.901 35.8032 421.021 39.0672 421.981 40.5552C422.701 39.2592 423.613 36.9072 423.901 35.3712C423.277 35.7072 422.749 35.7072 422.125 35.7072H408.685C410.077 36.0432 411.325 37.1952 411.325 38.6832C411.325 39.9792 409.357 42.1872 408.493 43.1472C407.341 44.3952 405.181 46.6032 403.405 46.6032C401.677 46.6032 400.189 45.1632 400.189 43.3872C400.189 42.0912 400.669 41.6592 402.157 40.3152C403.405 39.2112 404.461 38.2992 405.373 37.2912C406.093 36.5232 406.669 35.9472 407.533 35.7072H402.253C400.141 35.7072 399.133 34.6032 399.133 32.5392C399.133 30.8112 400.045 29.4192 401.869 29.4192H402.973V11.9952H402.109C400.381 11.9952 399.709 10.3632 399.709 8.87522C399.709 7.33922 400.381 5.75522 402.157 5.75522H402.973V4.55522C402.973 2.29922 404.173 1.14722 406.429 1.14722C408.589 1.14722 409.741 2.44322 409.741 4.55522V5.75522H414.877V4.55522C414.877 2.25122 416.125 1.14722 418.381 1.14722C420.589 1.14722 421.741 2.39522 421.741 4.55522V5.75522H422.701C424.525 5.75522 425.005 7.43522 425.005 8.97122C425.005 10.5072 424.381 11.9952 422.701 11.9952H421.741V29.4192H422.749C423.661 29.4192 424.285 29.7552 424.813 30.5232ZM431.773 14.2512H437.101V10.2192C437.101 9.54722 436.765 9.21122 436.093 9.21122H432.781C432.109 9.21122 431.773 9.54722 431.773 10.2192V14.2512ZM414.877 11.9952H409.741V14.5872H414.877V11.9952ZM414.877 19.3872H409.741V21.9792H414.877V19.3872ZM437.101 20.5872H431.773V25.6752H437.101V20.5872ZM414.877 26.7792H409.741V29.4192H414.877V26.7792Z" fill="#035AAB"/>
<path d="M367.209 40.9393C367.017 40.9873 366.729 41.0353 366.393 41.0353C364.617 41.0353 363.321 38.9713 361.929 36.2833C360.633 39.4993 358.857 42.5713 356.505 45.2113C355.689 46.0753 354.873 46.7473 353.577 46.7473C351.513 46.7473 349.545 44.7313 349.545 42.6673C349.545 41.4673 350.217 40.7953 351.033 39.9793C355.113 35.9953 356.745 33.0193 357.801 27.3553H352.809C350.217 27.3553 349.305 26.2033 349.305 23.6593C349.305 21.3553 350.649 20.4433 352.809 20.4433H358.185V13.4833H357.177C355.929 16.5553 354.921 18.6193 352.905 18.6193C351.177 18.6193 348.969 17.2753 348.969 15.3553C348.969 14.3473 349.449 13.3873 349.881 12.5233C351.273 9.73929 352.137 7.2433 352.953 4.21929C353.481 2.2993 353.961 1.0033 356.265 1.0033C357.945 1.0033 359.913 1.81929 359.913 3.78729C359.913 4.3633 359.769 5.2273 359.433 6.66729H366.297C367.161 6.66729 367.977 6.7633 368.697 7.2913C368.601 6.85929 368.601 6.47529 368.601 6.0433C368.601 3.59529 369.705 2.63529 372.105 2.63529H391.161C393.753 2.63529 394.713 3.73929 394.713 6.23529C394.713 8.58729 393.369 9.4993 391.161 9.4993H372.105C371.241 9.4993 370.377 9.4033 369.705 8.9233C369.801 9.35529 369.801 9.6433 369.801 10.0753C369.801 12.2833 368.793 13.4833 366.537 13.4833H365.049V20.4433H367.113C368.505 20.4433 369.849 20.7793 370.377 22.2193V17.6593C370.377 13.5313 372.057 11.8513 376.233 11.8513H386.841C391.017 11.8513 392.697 13.5313 392.697 17.6593V22.6513C392.697 25.7233 391.833 27.8833 388.473 28.3633C390.153 28.4113 392.073 29.1793 392.073 31.0993C392.073 32.6833 390.489 37.1953 389.817 38.7793H391.641C394.089 38.7793 395.193 39.8353 395.193 42.2833C395.193 44.6353 393.849 45.5473 391.641 45.5473H370.617C368.265 45.5473 367.065 44.5393 367.065 42.1393C367.065 41.7073 367.113 41.3233 367.209 40.9393ZM384.825 17.8993H378.345C377.481 17.8993 377.001 18.3793 377.001 19.2433V21.0673C377.001 21.9313 377.481 22.3633 378.345 22.3633H384.825C385.641 22.3633 386.121 21.9313 386.121 21.0673V19.2433C386.121 18.3793 385.641 17.8993 384.825 17.8993ZM369.945 37.5313C369.945 38.0113 369.849 38.3953 369.609 38.8273C369.993 38.7793 370.233 38.7793 370.617 38.7793H373.977C373.353 38.1553 372.393 34.9873 371.913 33.7873C371.337 32.3473 371.241 31.8193 371.241 31.3393C371.241 29.5153 373.113 28.5553 374.745 28.5553C376.953 28.5553 377.529 29.9473 378.345 32.1073C378.777 33.2593 379.641 35.6593 379.641 36.8113C379.641 37.7713 379.209 38.2993 378.489 38.7793H382.857C383.721 36.5713 384.345 34.5073 384.921 32.2513C385.545 29.9473 385.641 28.8913 387.561 28.4593H376.233C373.497 28.4593 371.145 27.7873 370.569 24.7633C370.233 26.7793 369.033 27.3553 367.113 27.3553H364.329V27.5473C365.961 31.0993 366.969 32.4913 369.273 35.6113C369.657 36.1873 369.945 36.8593 369.945 37.5313Z" fill="#035AAB"/>
<path d="M337.98 15.9793L338.076 25.1953C340.284 26.4913 344.22 28.8913 344.22 31.7713C344.22 33.5953 342.684 35.2273 340.812 35.2273C339.66 35.2273 338.844 34.5553 338.076 33.7873C337.548 41.0833 333.564 44.7313 326.268 44.7313C319.692 44.7313 314.364 39.5473 314.364 32.9233C314.364 30.0433 315.468 27.1633 317.484 25.1473C319.788 22.8433 323.292 21.9793 326.46 21.9793C327.9 21.9793 329.34 22.1713 330.732 22.4593L330.684 15.9793H317.82C315.9 15.9793 314.268 14.4913 314.268 12.5233C314.268 10.6033 315.9 9.11532 317.82 9.11532H330.588V7.14732C330.588 5.13132 332.172 3.40332 334.236 3.40332C336.252 3.40332 337.836 5.13132 337.884 7.14732V9.11532H340.956C342.828 9.11532 344.508 10.6033 344.508 12.5233C344.508 14.4433 342.876 15.9793 340.956 15.9793H337.98ZM306.732 3.45132C308.7 3.45132 310.38 5.03532 310.38 7.00332C310.38 7.53132 310.332 8.05932 310.284 8.58732C309.564 14.2513 309.228 19.9633 309.228 25.6753C309.228 28.7473 309.276 31.9633 309.996 34.8913C310.332 36.2353 310.908 37.3873 311.532 38.6353C311.916 39.3553 312.252 40.2673 312.252 41.1313C312.252 43.0993 310.428 44.5873 308.604 44.5873C305.724 44.5873 304.38 41.2753 303.612 38.9713C302.028 34.4593 301.836 29.5633 301.836 24.8113C301.836 20.1553 302.172 15.4993 302.556 10.7953C302.7 9.25932 302.892 7.24332 303.324 5.89932C303.804 4.45932 305.148 3.45132 306.732 3.45132ZM331.116 29.5153C329.628 29.0353 328.092 28.7473 326.508 28.7473C323.82 28.7473 321.468 30.1393 321.468 33.1153C321.468 36.1873 323.724 37.9153 326.652 37.9153C330.012 37.9153 331.116 35.6593 331.116 32.6353V29.5153Z" fill="#494949"/>
<path d="M283.694 40.2192C281.774 42.2832 280.334 43.4832 278.078 45.1152C277.07 45.8352 276.014 46.5552 274.718 46.5552C273.182 46.5552 271.982 45.6912 271.31 44.2992C270.782 44.7312 270.302 44.9232 269.63 44.9232C268.862 44.9232 268.43 44.7312 267.182 43.9152C266.462 43.4352 265.694 43.0032 264.494 42.3792C261.566 44.2992 256.862 46.6032 253.31 46.6032C251.438 46.6032 250.286 44.9232 250.286 43.1952C250.286 41.3232 251.438 40.8432 253.022 40.5552C254.654 40.2192 256.238 39.7872 257.774 39.2592C256.238 38.7312 254.942 38.2512 253.886 37.7712C253.214 37.4832 252.59 36.6672 252.59 35.7072C252.59 34.9392 252.782 34.4592 253.166 33.8352C253.598 33.1152 253.886 32.5872 254.126 32.0592H252.398C250.43 32.0592 249.614 30.9552 249.614 29.0832C249.614 27.1152 250.766 26.2992 252.638 26.2992H256.526C257.246 24.2832 257.342 23.3232 259.166 22.9392C259.07 22.4592 259.07 22.2192 259.07 21.7392V19.0032C257.822 20.4912 254.654 24.0432 252.638 24.0432C250.574 24.0432 249.422 22.2192 249.422 20.3472C249.422 18.9552 250.718 18.1872 252.446 17.2272C253.55 16.6032 255.23 15.3072 256.382 14.1552H252.638C250.718 14.1552 249.71 13.4352 249.71 11.4192C249.71 9.40322 250.718 8.73122 252.638 8.73122H259.07V4.17122C259.07 1.72322 260.366 1.14722 262.622 1.14722C264.782 1.14722 265.79 2.01122 265.79 4.17122V8.73122H271.55C273.518 8.73122 274.478 9.45122 274.478 11.4672C274.478 13.4352 273.374 14.1552 271.55 14.1552H267.854C268.814 15.1152 269.822 16.0752 270.878 16.9392C271.502 17.4192 272.03 17.7552 272.27 18.3792C275.678 13.0512 276.302 9.97922 277.79 4.02722C278.27 2.05922 279.134 1.29122 281.15 1.29122C283.022 1.29122 284.99 1.81922 284.99 4.02722C284.99 4.74722 284.75 5.85122 284.174 7.81922H292.046C294.494 7.81922 295.454 9.16322 295.454 11.5152C295.454 13.6752 294.494 14.9712 292.286 15.0672C292.046 21.6432 290.894 27.8832 288.014 33.7872C289.838 36.1392 291.278 37.2912 293.63 39.2592C294.59 40.0752 295.358 41.0832 295.358 42.4272C295.358 44.4432 293.582 46.6032 291.47 46.6032C289.742 46.6032 288.11 45.0192 286.91 43.8672C285.758 42.7632 284.654 41.5152 283.694 40.2192ZM270.734 1.62722C272.03 1.62722 274.046 2.25122 274.046 3.83522C274.046 4.84322 273.134 6.37922 272.606 7.19522C271.934 8.20322 271.262 8.68322 270.062 8.68322C268.718 8.68322 266.942 7.96322 266.942 6.37922C266.942 5.70722 267.422 4.79522 268.286 3.25922C268.862 2.15522 269.438 1.62722 270.734 1.62722ZM257.87 6.23522C257.87 8.10722 255.902 8.63522 254.414 8.63522C252.926 8.63522 252.686 8.01122 252.11 6.76322C251.822 6.13922 251.102 4.55522 251.102 3.88322C251.102 2.29922 252.974 1.67522 254.27 1.67522C255.566 1.67522 256.046 2.15522 256.67 3.16322C257.15 3.93122 257.87 5.37122 257.87 6.23522ZM283.838 26.4432C284.99 23.0352 285.47 18.7152 285.518 15.0672H281.774C281.726 15.2112 281.678 15.3072 281.63 15.4512C281.966 19.4352 282.446 22.6512 283.838 26.4432ZM279.806 33.9792C278.366 31.0512 277.31 27.9312 276.734 24.7152C276.014 25.4832 275.198 26.0592 274.094 26.0592C272.318 26.0592 270.398 24.4752 270.254 22.6512C270.11 22.6992 269.966 22.7472 269.774 22.7472C268.43 22.7472 266.798 20.6832 265.79 19.3392V21.7392C265.79 23.3232 265.358 24.3312 263.678 24.6672V24.9552C263.678 25.3872 263.534 25.9152 263.39 26.2992H271.838C273.758 26.2992 274.958 27.1632 274.958 29.1792C274.958 31.2432 273.758 32.0592 271.838 32.0592H271.646C271.31 34.2672 270.59 36.0432 269.294 37.8672C271.07 38.5872 271.886 38.7792 272.414 39.8832C274.094 38.8272 275.102 38.1552 276.11 37.4832C277.262 36.7152 278.318 35.7552 279.806 33.9792ZM263.582 35.8032C264.542 34.6512 265.118 33.4512 265.55 32.0592H260.75C260.366 32.7792 259.79 33.8832 259.79 34.2672C259.79 34.6032 259.934 34.7472 260.606 34.9392C261.422 35.1792 262.334 35.4192 263.582 35.8032Z" fill="#494949"/>
<path d="M241.162 9.54729V38.7793C241.162 43.4833 239.29 45.3553 234.634 45.3553H210.49C205.786 45.3553 203.914 43.4833 203.914 38.7793V9.54729C203.914 4.89128 205.786 3.01929 210.49 3.01929H234.634C239.29 3.01929 241.162 4.79529 241.162 9.54729ZM233.482 20.3473V11.7553C233.482 10.6993 232.906 10.1233 231.85 10.1233H213.178C212.17 10.1233 211.594 10.6993 211.594 11.7553V20.3473H233.482ZM211.594 27.3073V36.6193C211.594 37.6273 212.17 38.2513 213.178 38.2513H231.85C232.906 38.2513 233.482 37.6273 233.482 36.6193V27.3073H211.594Z" fill="#494949"/>
<path d="M169.643 17.3232H169.259C166.955 17.3232 166.091 16.0272 166.091 13.8192V10.9392C166.091 6.8592 167.723 5.2272 171.755 5.2272H176.795V3.7872C176.795 1.7232 178.331 0.9552 180.203 0.9552C182.075 0.9552 183.563 1.7232 183.563 3.7872V5.2272H188.603C192.683 5.2272 194.315 6.8592 194.315 10.9392V13.8192C194.315 16.2192 193.355 17.3232 190.907 17.3232V17.8032C190.907 19.8672 189.899 20.7792 187.883 20.7792H172.667C170.651 20.7792 169.643 19.8672 169.643 17.7552V17.3232ZM157.499 35.5632V43.3872C157.499 45.8352 156.491 46.8912 153.995 46.8912C151.739 46.8912 150.875 45.4992 150.875 43.3872V8.1552C150.875 3.0672 151.883 2.2032 156.875 2.2032H160.235C164.123 2.2032 166.235 2.4912 166.235 7.0032C166.235 9.0192 165.899 10.7472 165.323 12.6672C165.083 13.5312 163.979 17.0832 163.643 17.9952C163.547 18.2352 163.403 18.6672 163.403 18.7632C163.403 19.0032 163.499 19.1952 163.691 19.4832C164.699 21.0192 165.563 22.5552 166.235 24.3792C167.003 23.4192 167.963 23.2752 169.163 23.2752H191.915C194.171 23.2752 195.419 24.1872 195.419 26.5392C195.419 28.7952 193.979 29.6592 191.915 29.6592H186.731V38.4912C186.731 39.5952 187.115 39.7392 188.123 39.7392C189.227 39.7392 189.371 39.4512 189.419 37.8192C189.467 35.2752 189.611 33.6912 192.107 33.6912C194.747 33.6912 195.131 35.2272 195.131 37.0032C195.131 39.2592 195.035 43.6272 193.403 45.3072C192.539 46.2192 190.715 46.4112 188.891 46.4112C187.931 46.4112 187.067 46.4112 186.395 46.4112C181.259 46.4112 180.107 45.6432 180.107 40.4112V29.6592H177.707C177.467 34.7472 177.035 39.1152 173.243 42.9552C171.707 44.4912 168.587 46.6512 166.379 46.6512C164.363 46.6512 162.971 44.5392 162.971 42.7152C162.971 41.2752 163.883 40.6032 165.611 39.7392C170.507 37.2432 170.987 34.8912 171.275 29.6592H169.163C168.539 29.6592 167.723 29.5632 167.147 29.2752V29.7072C167.147 32.2992 166.523 36.0432 163.739 37.0512C162.923 37.3872 161.915 37.4832 161.051 37.4832C159.563 37.4832 158.027 37.0992 157.499 35.5632ZM157.499 31.8192C157.787 31.0032 158.123 30.6672 158.987 30.5712C160.187 30.4272 160.475 29.6112 160.475 27.8832C160.475 25.3392 159.611 22.9872 158.411 20.7792C158.123 20.2992 157.883 19.8192 157.883 19.2432C157.883 19.0032 158.075 18.0432 158.219 17.5632C159.035 14.8272 159.611 12.5232 160.043 10.7952C160.139 10.4592 160.235 9.9792 160.235 9.7872C160.235 9.2592 159.851 9.0192 159.371 9.0192H158.363C157.787 9.0192 157.499 9.3552 157.499 9.8832V31.8192ZM172.571 14.7792H187.691C187.643 14.4432 187.643 14.1552 187.643 13.8192V12.4752C187.643 11.8992 187.307 11.6112 186.731 11.6112H173.531C172.955 11.6112 172.619 11.9472 172.619 12.4752V13.8192C172.619 14.1552 172.619 14.4432 172.571 14.7792Z" fill="#494949"/>
<path d="M122.936 24.5232C121.4 29.6112 119.336 33.8832 115.832 38.0112C113.72 40.4592 107.432 46.3152 104.216 46.3152C101.816 46.3152 99.9922 44.0112 99.9922 41.7552C99.9922 39.8832 101.048 39.1632 102.536 38.2992C109.256 34.3632 114.152 29.0832 116.84 21.6912C117.752 19.1952 118.856 14.1552 118.856 11.5152C118.856 10.2192 118.328 10.0752 117.128 10.0752H110.264C107.672 10.0752 106.472 8.87523 106.472 6.28323C106.472 3.78723 107.864 2.68323 110.264 2.68323H120.392C126.056 2.68323 126.68 5.27523 127.016 10.2672C127.352 15.6432 128.552 21.0192 131.048 25.8192C133.64 30.7632 137.864 35.3712 142.712 38.1552C144.2 39.0672 145.256 39.7872 145.256 41.7072C145.256 44.0592 143.384 46.3152 140.984 46.3152C137.672 46.3152 131.96 40.5552 129.896 38.0592C126.632 34.0752 124.424 29.4192 122.936 24.5232Z" fill="#494949"/>
<path d="M72.6326 18.2352C73.0646 18.1872 73.3526 18.1872 73.7846 18.1872H81.4646C83.7686 18.1872 84.9206 19.0512 84.9206 21.4992C84.9206 23.8512 83.7206 24.7632 81.4646 24.7632H73.7846C71.4326 24.7632 70.3286 23.8512 70.2806 21.4512C69.8486 21.7392 69.4646 21.8352 68.9366 21.8352C67.4966 21.8352 66.0566 21.0192 65.2886 19.8192C64.7126 20.0592 64.2326 20.1072 63.6566 20.1072H62.0246V31.1472C62.9846 30.8112 64.3286 30.3312 65.3846 30.3312C67.1126 30.3312 67.8806 31.9152 68.0246 33.4032C68.2646 32.3952 68.6966 31.8672 69.6566 31.4832C70.2806 31.1952 74.9846 29.9472 76.1366 29.5632C77.8646 29.0832 79.5926 28.4592 81.2726 27.8832C81.7526 27.7392 82.4246 27.5472 82.8566 27.5472C84.6806 27.5472 85.6886 29.6112 85.6886 31.1952C85.6886 33.1632 84.7286 33.5952 80.3606 35.2272C78.6326 35.8992 72.4886 38.2512 70.9526 38.2512C69.0326 38.2512 68.1206 36.1872 67.9766 34.5552C67.5926 36.2352 66.7286 36.4272 64.9046 37.1952C62.7926 38.0592 54.4886 41.1792 52.6646 41.1792C50.6006 41.1792 49.6406 38.9232 49.6406 37.1472C49.6406 35.4192 50.3126 34.6992 51.6566 34.2192C52.5206 33.9312 53.6246 33.6432 54.8726 33.2592V20.1072H53.2406C50.5526 20.1072 49.7366 18.9552 49.7366 16.4112C49.7366 14.0592 51.0326 13.1472 53.2406 13.1472H54.8726V4.84323C54.8726 2.05923 56.1206 1.33923 58.7606 1.33923C61.1126 1.33923 62.0246 2.58723 62.0246 4.84323V13.1472H63.6566C64.9526 13.1472 65.9606 13.5312 66.3926 14.8752C68.9846 10.6992 69.8486 8.20323 71.1446 3.49923C71.6246 1.77123 72.4406 0.907227 74.3606 0.907227C75.9926 0.907227 78.2966 1.57923 78.2966 3.59523C78.2966 4.65123 77.7686 6.18723 77.4806 7.19523H88.5206C94.0406 7.19523 94.3766 10.3152 94.3766 14.4432V15.9312C94.3766 21.8352 94.2806 36.8592 92.4086 41.9472C91.4966 44.3952 90.0566 46.0752 87.2726 46.3632C85.8806 46.5072 83.7686 46.6032 81.7526 46.6032H79.3526C77.8646 46.6032 76.0886 46.5552 75.2246 46.0752C74.1206 45.4992 73.5926 44.0592 73.5926 42.8112C73.5926 40.2672 75.1766 39.2592 77.5286 39.2592C78.9206 39.2592 80.3126 39.3552 81.6566 39.3552C84.9206 39.3552 85.6406 39.2112 86.3126 33.5472C86.8406 29.0832 87.0326 20.4432 87.0326 15.7392C87.0326 14.7792 86.9366 13.9152 85.7366 13.9152H74.8406C74.1686 15.4032 73.4006 16.8432 72.6326 18.2352Z" fill="#494949"/>
<path d="M26.5596 9.40328V24.6193H42.1596C44.7996 24.6193 45.6636 25.7713 45.6636 28.3633C45.6636 30.7153 44.4156 31.6273 42.1596 31.6273H26.5596V43.4833C26.5596 46.2193 25.1196 46.9393 22.4796 46.9393C20.0316 46.9393 19.0716 45.8353 19.0716 43.4833V31.6273H3.51962C0.831625 31.6273 0.015625 30.4273 0.015625 27.8833C0.015625 25.5313 1.31162 24.6193 3.51962 24.6193H19.0716V9.40328H5.24762C2.65562 9.40328 1.74362 8.29928 1.74362 5.75528C1.74362 3.45128 3.08762 2.58728 5.24762 2.58728H40.5756C43.1196 2.58728 44.0796 3.69128 44.0796 6.23528C44.0796 8.53928 42.7356 9.40328 40.5756 9.40328H26.5596ZM15.0396 20.8753C15.0396 22.9873 12.8316 24.0433 10.9596 24.0433C9.03963 24.0433 8.46362 23.1793 7.69563 21.1153C7.26363 19.8673 6.78362 18.1873 5.91962 16.0273C5.39162 14.7313 5.00762 13.6753 5.00762 12.8593C5.00762 10.9873 7.35962 9.97928 8.94362 9.97928C10.2396 9.97928 11.0076 10.4113 11.6316 11.5153C12.7356 13.4353 13.5036 15.8353 14.2716 17.9473C14.6556 18.8593 15.0396 20.1073 15.0396 20.8753ZM41.1996 13.1473C41.1996 14.3473 38.8956 19.8673 38.2716 21.2113C37.5036 22.9393 36.8796 24.1873 34.7676 24.1873C32.9916 24.1873 30.9276 23.1793 30.9276 21.1153C30.9276 20.2513 31.3116 19.1473 32.0316 17.5633C32.7516 15.8353 33.3756 14.1073 33.9516 12.3793C34.4796 10.8433 35.2956 10.0273 36.9276 10.0273C38.7516 10.0273 41.1996 10.9873 41.1996 13.1473Z" fill="#494949"/>
</svg>
