<svg width="532" height="191" viewBox="0 0 532 191" fill="none" xmlns="http://www.w3.org/2000/svg">
<path d="M262.069 189.327C264.444 190.94 267.563 190.94 269.938 189.327L528.639 13.5398C534.341 9.66522 531.599 0.749969 524.705 0.749969H7.30212C0.408162 0.749969 -2.33424 9.66522 3.36789 13.5398L262.069 189.327Z" fill="url(#paint0_linear_536_43)" fill-opacity="0.35"/>
<path d="M469.393 105.928L467.713 118.792C467.521 120.472 467.137 121.672 465.169 121.672C463.249 121.672 462.913 120.376 462.721 118.792L461.041 105.928V96.712C461.041 93.832 462.577 92.824 465.313 92.824C467.953 92.824 469.393 93.976 469.393 96.712V105.928ZM465.217 124.792C467.761 124.792 469.825 126.856 469.825 129.4C469.825 131.992 467.761 134.056 465.217 134.056C462.673 134.056 460.609 131.992 460.609 129.4C460.609 126.856 462.673 124.792 465.217 124.792Z" fill="#494949"/>
<path d="M406.996 98.392C409.78 97.288 412.708 96.7599 415.684 96.7599C417.316 96.7599 418.9 96.904 420.484 97.288L421.156 95.608C421.684 94.216 423.124 93.304 424.612 93.304C426.436 93.304 428.116 94.8879 428.116 96.7599C428.116 97.3839 427.924 97.912 427.732 98.488L427.3 99.688C433.588 103.144 436.756 109.336 436.756 116.44C436.756 122.44 434.548 128.968 429.46 132.568C427.06 134.296 424.228 135.544 421.252 135.544C419.236 135.544 417.652 133.672 417.652 131.704C417.652 130.6 418.132 129.544 418.948 128.872C419.764 128.152 420.772 127.912 421.78 127.672C427.444 126.184 429.316 121.672 429.316 116.248C429.316 112.216 428.02 108.76 424.612 106.408L415.876 127.96C414.244 131.992 411.988 134.68 407.38 134.68C398.5 134.68 393.844 125.752 393.844 117.88C393.844 111.832 396.292 106.024 400.9 102.088L399.844 99.0639C399.076 96.808 400.852 94.456 403.156 94.456C404.596 94.456 405.988 95.368 406.468 96.712L406.996 98.392ZM413.236 116.872L418.372 103.864C417.412 103.768 416.404 103.672 415.396 103.672C413.236 103.672 411.076 104.056 409.108 104.872L413.236 116.872ZM410.212 123.64C408.964 123.4 407.956 122.488 407.524 121.288L403.396 109.24C401.524 111.688 400.66 114.76 400.66 117.832C400.66 121.288 402.436 127.864 406.804 127.864C408.58 127.864 409.252 126.184 409.78 124.744L410.212 123.64Z" fill="#494949"/>
<path d="M379.659 104.44L379.851 109.48C379.947 112.12 380.139 114.808 380.139 117.496C380.139 122.008 378.987 127.144 375.723 130.408C371.691 134.44 365.547 135.592 360.075 135.592C357.723 135.592 354.651 135.544 352.539 134.584C351.483 134.104 350.811 132.856 350.811 131.704C350.811 129.928 352.251 128.296 354.075 128.296C354.795 128.296 355.563 128.488 356.283 128.584C357.723 128.824 359.211 128.968 360.699 128.968C363.627 128.968 367.659 128.488 369.867 126.376C370.443 125.848 370.923 125.176 371.355 124.504C369.387 125.032 367.371 125.224 365.355 125.224C358.971 125.224 350.187 123.736 350.187 115.624C350.187 107.608 359.019 106.312 365.259 106.312C367.803 106.312 370.395 106.504 372.843 107.128L372.747 104.2H348.747C346.539 104.2 345.531 102.664 345.531 100.936C345.531 99.1599 346.971 97.6719 348.747 97.6719H372.075L372.027 96.6159C372.027 94.5039 373.659 92.7759 375.771 92.7759C377.787 92.7759 379.371 94.3599 379.467 96.3279V97.6719H383.787C385.611 97.6719 387.051 99.2079 387.051 101.032C387.051 103.192 385.515 104.44 383.787 104.44H379.659ZM373.131 115.432C372.795 113.272 370.203 112.456 365.019 112.456C363.243 112.456 359.211 112.648 357.915 113.896C357.435 114.376 357.195 115 357.195 115.672C357.195 119.08 362.763 119.08 365.787 119.08C367.755 119.08 371.643 119.08 372.747 117.256C373.035 116.776 373.131 116.392 373.131 115.912V115.432Z" fill="#494949"/>
<path d="M329.737 104.44L329.929 109.48C330.025 112.12 330.217 114.808 330.217 117.496C330.217 122.008 329.065 127.144 325.801 130.408C321.769 134.44 315.625 135.592 310.153 135.592C307.801 135.592 304.729 135.544 302.617 134.584C301.561 134.104 300.889 132.856 300.889 131.704C300.889 129.928 302.329 128.296 304.153 128.296C304.873 128.296 305.641 128.488 306.361 128.584C307.801 128.824 309.289 128.968 310.777 128.968C313.705 128.968 317.737 128.488 319.945 126.376C320.521 125.848 321.001 125.176 321.433 124.504C319.465 125.032 317.449 125.224 315.433 125.224C309.049 125.224 300.265 123.736 300.265 115.624C300.265 107.608 309.097 106.312 315.337 106.312C317.881 106.312 320.473 106.504 322.921 107.128L322.825 104.2H298.825C296.617 104.2 295.609 102.664 295.609 100.936C295.609 99.1599 297.049 97.6719 298.825 97.6719H322.153L322.105 96.6159C322.105 94.5039 323.737 92.7759 325.849 92.7759C327.865 92.7759 329.449 94.3599 329.545 96.3279V97.6719H333.865C335.689 97.6719 337.129 99.2079 337.129 101.032C337.129 103.192 335.593 104.44 333.865 104.44H329.737ZM323.209 115.432C322.873 113.272 320.281 112.456 315.097 112.456C313.321 112.456 309.289 112.648 307.993 113.896C307.513 114.376 307.273 115 307.273 115.672C307.273 119.08 312.841 119.08 315.865 119.08C317.833 119.08 321.721 119.08 322.825 117.256C323.113 116.776 323.209 116.392 323.209 115.912V115.432Z" fill="#494949"/>
<path d="M267.386 107.512C271.754 107.656 276.362 108.28 280.202 110.488C284.33 112.888 286.634 116.968 286.634 121.72C286.634 126.568 284.186 131.08 279.962 133.528C277.898 134.728 275.45 135.544 273.098 135.544C271.082 135.544 269.402 134.008 269.402 131.992C269.402 129.352 271.802 128.68 272.714 128.488C276.698 127.72 279.434 126.04 279.434 121.864C279.434 115.672 272.234 114.28 267.338 114.232V126.472C267.338 132.616 264.698 135.352 258.506 135.352C251.066 135.352 245.594 130.024 245.594 122.584C245.594 113.704 252.218 109.288 260.234 107.944V104.248H249.578C247.706 104.248 246.122 102.712 246.122 100.84C246.122 98.92 247.706 97.4321 249.578 97.4321H259.946V97.1441C259.946 95.0801 261.626 93.3521 263.69 93.3521C265.754 93.3521 267.386 95.1761 267.386 97.2401V97.4321H273.722C275.594 97.4321 277.226 98.92 277.226 100.84C277.226 102.712 275.594 104.248 273.722 104.248H267.386V107.512ZM283.034 107.224L279.098 99.064C277.994 96.712 279.626 93.8801 282.266 93.8801C283.706 93.8801 284.858 94.744 285.482 95.9921L289.322 104.008C289.61 104.584 289.754 105.256 289.754 105.736C289.754 107.608 288.362 109.288 286.25 109.288C284.762 109.288 283.61 108.424 283.034 107.224ZM260.234 114.76C256.01 115.624 252.65 117.928 252.65 122.632C252.65 125.464 254.474 128.488 257.594 128.488C259.418 128.488 260.234 127.192 260.234 125.512V114.76Z" fill="#494949"/>
<path d="M226.776 97.912V94.12C226.776 92.632 228.024 91.384 229.512 91.384C231 91.384 232.248 92.632 232.248 94.12V98.104C232.248 99.592 231 100.84 229.512 100.84C227.784 100.84 226.776 99.448 226.776 97.912ZM234.408 97.864V94.12C234.408 92.632 235.656 91.384 237.144 91.384C238.632 91.384 239.88 92.632 239.88 94.12V98.104C239.88 99.592 238.632 100.84 237.144 100.84C235.416 100.84 234.408 99.4 234.408 97.864ZM210.696 108.04L203.544 132.952C203.112 134.488 201.72 135.64 200.088 135.64C197.592 135.64 196.008 133.192 196.632 130.888L203.112 108.424L198.216 108.664C197.352 108.712 196.536 108.616 195.768 108.184C194.712 107.56 193.992 106.36 193.992 105.112C193.992 102.904 195.768 101.656 197.784 101.56L205.176 101.224L206.568 96.28C207 94.744 208.44 93.64 210.024 93.64C212.712 93.64 214.152 96.136 213.432 98.584L212.76 100.888H213.768C224.376 100.888 230.616 106.888 230.616 117.592C230.616 126.856 225.432 135.496 215.304 135.496C212.52 135.496 207.816 134.44 207.816 130.888C207.816 128.92 209.448 127.336 211.416 127.336C212.184 127.336 212.856 127.624 213.576 127.912C214.2 128.152 214.92 128.248 215.64 128.248C221.448 128.248 223.368 122.152 223.368 117.304C223.368 110.728 219.816 107.992 213.48 107.992C212.52 107.992 211.608 108.04 210.696 108.04ZM229.608 102.904C231.096 102.856 232.44 102.136 233.352 100.984C234.312 102.232 235.8 102.904 237.384 102.904L240.168 109.048C240.504 109.768 240.504 109.96 240.504 110.392C240.504 112.12 239.208 113.992 236.904 113.992C235.656 113.992 234.312 113.224 233.736 112.024L229.608 102.904Z" fill="#494949"/>
<path d="M152.762 107.608C150.698 108.712 148.586 109.672 147.434 109.672C145.226 109.672 143.93 107.128 143.93 105.208C143.93 102.52 146.282 102.088 150.122 100.504C153.674 99.0639 156.794 96.8559 159.818 94.5999C162.458 92.6319 163.418 91.5759 166.922 91.5759C170.426 91.5759 171.674 92.9679 174.41 94.9839C178.346 97.9119 182.186 100.168 186.746 101.992C188.33 102.616 189.386 103.24 189.386 105.112C189.386 107.224 188.042 109.72 185.642 109.72C184.394 109.72 182.234 108.664 180.41 107.656C180.266 109.864 179.066 110.536 176.954 110.536H170.042V113.704H184.154C186.746 113.704 187.658 114.808 187.658 117.304C187.658 119.656 186.314 120.52 184.154 120.52H180.746C181.658 120.904 182.57 121.624 182.57 122.728C182.57 124.024 180.794 128.44 179.786 129.304H185.162C187.754 129.304 188.666 130.408 188.666 132.904C188.666 135.256 187.37 136.12 185.162 136.12H147.818C145.226 136.12 144.266 135.016 144.266 132.472C144.266 130.168 145.658 129.304 147.818 129.304H153.194C152.426 128.536 151.706 126.568 151.13 125.272C150.746 124.504 150.362 123.688 150.362 122.872C150.362 121.624 151.37 120.952 152.378 120.52H148.874C146.33 120.52 145.37 119.416 145.37 116.92C145.37 114.568 146.714 113.704 148.874 113.704H162.938V110.536H156.218C154.106 110.536 152.858 109.816 152.762 107.608ZM159.05 103.96H174.458C171.914 102.184 169.706 100.36 167.498 98.2479C167.258 98.0079 167.018 97.8159 166.73 97.8159C166.25 97.8159 165.818 98.3439 165.53 98.6799C163.706 100.6 161.258 102.472 159.05 103.96ZM156.362 120.52C157.37 121.144 157.85 122.68 158.282 123.736C158.762 124.792 159.386 126.328 159.386 127.48C159.386 128.392 159.002 128.872 158.186 129.304H162.938V120.52H156.362ZM174.794 129.304C173.978 128.824 173.45 128.2 173.45 127.192C173.45 126.184 174.362 124.888 175.274 122.344C175.562 121.624 175.85 120.952 176.522 120.52H170.042V129.304H174.794Z" fill="#035AAB"/>
<path d="M111.051 108.088C111.291 106.264 112.443 105.688 114.171 105.688H121.419V102.52H115.515C113.259 102.52 112.299 101.416 112.299 99.1601C112.299 97.0961 113.499 96.1361 115.515 96.1361H121.419V94.7921C121.419 92.1521 123.051 91.7681 125.307 91.7681C127.419 91.7681 128.667 92.5361 128.667 94.7921V96.1361H135.099C137.355 96.1361 138.411 97.0961 138.411 99.4001C138.411 101.608 137.163 102.52 135.099 102.52H128.667V105.688H136.299C138.843 105.688 139.611 106.792 139.611 109.24C139.611 111.304 138.699 112.504 136.539 112.504H134.667V115.432H136.251C138.555 115.432 139.227 116.92 139.227 119.032C139.227 121 138.315 122.296 136.251 122.296H134.667V132.04C134.667 134.296 134.043 135.928 132.459 136.648C131.115 137.272 129.099 137.368 127.419 137.368H125.787C122.763 137.368 120.075 137.272 120.075 133.336V132.76C119.739 132.856 119.451 132.904 119.115 132.904C117.243 132.904 116.715 131.992 115.803 130.12C115.419 129.352 114.891 128.488 114.411 127.768C113.787 126.856 113.307 126.136 113.307 125.272C113.307 123.736 114.459 122.824 115.803 122.296H114.603C112.059 122.296 111.387 121 111.387 118.648C111.387 116.488 112.395 115.432 114.603 115.432H127.419V112.504H114.171C112.443 112.504 111.291 111.88 111.051 110.056V129.304C111.051 134.296 110.091 135.256 105.099 135.256H101.115C96.1229 135.256 95.2109 134.296 95.2109 129.304V99.7361C95.2109 94.7441 96.1229 93.8321 101.115 93.8321H105.099C110.091 93.8321 111.051 94.7921 111.051 99.7361V108.088ZM104.907 111.496V101.368C104.907 100.792 104.619 100.456 103.995 100.456H102.555C101.931 100.456 101.643 100.792 101.643 101.368V111.496H104.907ZM104.907 117.448H101.643V127.768C101.643 128.392 101.931 128.68 102.555 128.68H103.995C104.619 128.68 104.907 128.392 104.907 127.768V117.448ZM118.923 122.296C119.547 122.584 120.939 124.264 121.995 125.992C122.763 127.24 123.387 128.536 123.387 129.304C123.387 129.544 123.291 129.88 123.195 130.168C124.011 130.168 124.827 130.216 125.643 130.216C127.179 130.216 127.419 129.592 127.419 128.152V122.296H118.923Z" fill="#035AAB"/>
<path d="M48.0253 110.44H85.5613C88.2013 110.44 89.3053 111.88 89.3053 114.424C89.3053 116.872 88.0573 118.216 85.5613 118.216H48.0253C45.3853 118.216 44.2812 116.776 44.2812 114.232C44.2812 113.128 44.6652 111.88 45.4812 111.16C46.2012 110.584 47.1613 110.44 48.0253 110.44Z" fill="#035AAB"/>
<path d="M356.398 45.9761L348.286 46.8401C347.326 46.9361 346.511 46.9361 345.647 46.4561C344.687 45.8801 344.062 44.8721 344.062 43.7201C344.062 42.3761 344.927 41.3201 346.127 40.7441L368.831 29.8481L353.087 30.1361C351.263 30.1841 349.631 28.8401 349.631 26.9201C349.631 25.0481 351.263 23.7041 353.039 23.7041H380.398C382.174 23.7041 383.807 25.0481 383.807 26.8721C383.807 28.1201 382.991 29.2241 381.887 29.7521L360.191 39.7841L381.887 37.7201C383.807 37.5761 385.631 38.9681 385.631 40.9361C385.631 41.9921 385.103 43.0001 384.191 43.5761C383.471 44.0081 382.654 44.1041 381.839 44.1521L371.807 44.8721C367.823 45.1601 361.199 46.3601 361.199 51.5441C361.199 56.0561 366.767 56.8241 370.174 56.8241C373.726 56.8241 376.079 56.3441 379.487 55.0961C379.967 54.9041 380.495 54.8561 381.023 54.8561C382.751 54.8561 384.286 56.3921 384.286 58.1201C384.286 62.8721 373.583 63.4961 370.223 63.4961C366.671 63.4961 363.023 62.9681 359.903 61.1441C356.591 59.2241 354.286 55.7681 354.286 51.8321C354.286 49.6721 355.054 47.6561 356.398 45.9761Z" fill="#494949"/>
<path d="M331.519 32.488H302.335C300.511 32.488 298.639 31.336 298.639 28.744C298.639 26.728 300.319 25 302.335 25H331.519C333.535 25 335.215 26.728 335.215 28.744C335.215 30.856 333.727 32.488 331.519 32.488ZM297.055 49.336C297.055 46.216 298.303 42.568 300.463 40.264C301.615 39.016 303.247 37.864 305.023 37.864C306.895 37.864 308.431 39.496 308.431 41.368C308.431 42.568 307.663 43.48 306.847 44.296C305.551 45.64 304.303 47.032 304.303 49C304.303 55.384 312.463 56.344 317.263 56.344C319.519 56.344 321.775 56.152 323.983 55.768C326.479 55.336 328.735 54.472 331.039 53.512C331.615 53.272 332.239 53.128 332.815 53.128C334.687 53.128 335.983 55 335.983 56.728C335.983 58.792 334.303 59.944 332.623 60.76C328.111 62.872 322.543 63.496 317.599 63.496C312.847 63.496 307.951 62.872 303.727 60.52C299.599 58.168 297.055 54.136 297.055 49.336Z" fill="#494949"/>
<path d="M277.996 29.992H253.42C251.548 29.992 249.868 28.648 249.868 26.68C249.868 24.712 251.548 23.272 253.42 23.272H277.948C279.868 23.272 281.548 24.712 281.548 26.68C281.548 28.888 279.916 29.992 277.996 29.992ZM256.54 38.824C259.996 36.664 264.796 36.088 268.828 36.088C277.132 36.088 286.204 39.4 286.204 49.096C286.204 54.088 283.66 58.12 279.436 60.664C275.452 63.016 270.7 63.64 266.188 63.64C261.868 63.64 257.308 63.112 253.372 61.24C251.692 60.424 249.772 59.272 249.772 57.208C249.772 55.336 251.5 53.752 253.324 53.752C254.284 53.752 255.1 54.184 255.916 54.616C259.228 56.344 263.116 56.872 266.812 56.872C270.316 56.872 274.348 56.2 276.988 53.656C278.188 52.504 278.956 50.968 278.956 49.24C278.956 43.96 272.476 42.808 268.348 42.808C264.652 42.808 260.668 43.576 257.452 45.448C255.964 46.264 254.668 47.368 253.516 48.664C252.748 49.528 251.884 50.152 250.684 50.152C248.476 50.152 247.18 48.472 247.18 46.504C247.18 46.072 247.276 45.64 247.42 45.208L250.06 36.136C250.492 34.504 251.836 33.256 253.612 33.256C255.436 33.256 257.068 34.792 257.068 36.616C257.068 37.384 256.732 38.152 256.54 38.824Z" fill="#494949"/>
<path d="M205.512 29.2239L206.904 24.2319C207.336 22.7439 208.776 21.6399 210.36 21.6399C211.656 21.6399 212.856 22.3119 213.48 23.4159C214.056 24.4239 214.104 25.4799 213.768 26.5839L213.096 28.8879H213.864C217.752 28.8879 221.688 29.4639 225 31.7679C229.512 34.8879 231.336 40.2639 231.336 45.5919C231.336 54.9519 225.96 63.4959 215.784 63.4959C213 63.4959 208.248 62.4879 208.248 58.8879C208.248 56.8719 209.928 55.3359 211.896 55.3359C212.472 55.3359 213 55.5279 213.528 55.7199C214.44 56.0559 215.352 56.2479 216.312 56.2479C221.976 56.2479 224.088 50.2479 224.088 45.4959C224.088 38.7759 220.392 35.9919 213.96 35.9919C212.952 35.9919 211.992 36.0399 211.032 36.0399L203.88 60.9519C203.448 62.4879 202.056 63.6399 200.424 63.6399C197.928 63.6399 196.344 61.1919 197.016 58.8879L203.448 36.4239L198.744 36.6159C197.784 36.6639 196.824 36.5199 196.104 36.1839C195 35.6559 194.328 34.3599 194.328 33.1119C194.328 30.8079 196.152 29.6079 198.264 29.5119L205.512 29.2239ZM233.208 36.9519L228.792 27.3039C227.736 24.9519 229.368 22.2159 232.008 22.2159C233.352 22.2159 234.648 23.0319 235.176 24.2799L239.64 34.0719C239.832 34.5039 239.928 34.9839 239.928 35.4159C239.928 37.2879 238.344 39.0159 236.376 39.0159C234.936 39.0159 233.688 38.0079 233.208 36.9519Z" fill="#494949"/>
<path d="M176.047 26.2961V22.3121C176.047 20.8241 177.295 19.5281 178.783 19.5281C180.271 19.5281 181.519 20.8241 181.519 22.3121V26.2481C181.519 27.7361 180.271 29.0321 178.783 29.0321C177.055 29.0321 176.047 27.8321 176.047 26.2961ZM183.679 26.2961V22.3121C183.679 20.7761 184.927 19.5761 186.415 19.5761C187.903 19.5761 189.151 20.8241 189.151 22.3121V26.2481C189.151 27.7841 187.903 29.0321 186.415 29.0321C184.687 29.0321 183.679 27.8321 183.679 26.2961ZM162.319 26.2481H173.983C174.031 28.8881 176.143 31.0481 178.783 31.0481C180.271 31.0481 181.663 30.3281 182.575 29.1761C182.623 29.3201 182.623 29.5121 182.623 29.7041C182.623 31.5281 181.135 33.1121 179.311 33.1121H160.591L154.159 60.4721C153.823 62.0081 152.191 63.1121 150.607 63.1121C148.495 63.1121 146.527 61.0961 147.007 58.8881L153.055 33.2081H148.111C146.383 33.2081 144.703 32.1521 144.703 29.7041C144.703 27.8801 146.239 26.2481 148.111 26.2481H154.687L155.215 23.9441C155.647 22.2161 157.087 20.8721 158.911 20.8721C161.215 20.8721 163.039 23.0321 162.511 25.3361L162.319 26.2481ZM182.815 43.8161H167.407C165.583 43.8161 164.047 42.2801 164.047 40.4081C164.047 38.5841 165.583 37.0001 167.407 37.0001H182.767C184.639 37.0001 186.175 38.5361 186.175 40.4081C186.175 41.3681 185.791 42.2801 185.119 42.9521C184.495 43.5281 183.631 43.8161 182.815 43.8161ZM174.703 63.4961C171.775 63.4961 168.895 63.0161 166.351 61.5761C163.471 59.8961 161.599 56.9681 161.599 53.6081C161.599 50.8241 163.183 46.8401 166.495 46.8401C168.271 46.8401 169.903 48.2321 169.903 50.0561C169.903 50.8721 169.567 51.5441 169.183 52.2161C168.943 52.6001 168.799 53.0801 168.799 53.5121C168.799 54.5201 169.567 55.2881 170.335 55.7681C171.583 56.4881 173.119 56.6321 174.511 56.6321C176.815 56.6321 179.167 56.2481 181.327 55.4801C182.095 55.1921 182.959 54.9041 183.775 54.9041C185.551 54.9041 186.943 56.5841 186.943 58.2641C186.943 63.0161 178.015 63.4961 174.703 63.4961Z" fill="#494949"/>
<defs>
<linearGradient id="paint0_linear_536_43" x1="266.004" y1="-4.50003" x2="266.004" y2="192" gradientUnits="userSpaceOnUse">
<stop stop-color="#A6CBEC" stop-opacity="0.41"/>
<stop offset="0.572115" stop-color="#64B2F6"/>
</linearGradient>
</defs>
</svg>
