<svg width="53" height="72" viewBox="0 0 53 72" fill="none" xmlns="http://www.w3.org/2000/svg">
<path d="M26.3712 0.325928C11.8126 0.325928 0.00726477 13.1409 0 28.9641C0 44.7873 26.3493 71.5779 26.3493 71.5779C26.3493 71.5779 52.7204 44.8031 52.7204 28.9799C52.7277 13.1645 40.9298 0.325928 26.3712 0.325928Z" fill="#C1E1C4"/>
<path d="M28.5409 52H25.5209V43.74C25.5209 43.4066 25.5276 42.96 25.5409 42.4C25.5543 41.8266 25.5743 41.3266 25.6009 40.9C25.5343 40.98 25.3876 41.1266 25.1609 41.34C24.9476 41.54 24.7476 41.72 24.5609 41.88L22.9209 43.2L21.4609 41.38L26.0609 37.72H28.5409V52Z" fill="white"/>
<path d="M47.5206 33.038C47.8206 33.038 48.1086 33.014 48.3846 32.966C48.6606 32.906 48.9366 32.828 49.2126 32.732V34.73C48.9246 34.862 48.5646 34.97 48.1326 35.054C47.7126 35.138 47.2506 35.18 46.7466 35.18C46.1586 35.18 45.6306 35.084 45.1626 34.892C44.7066 34.7 44.3406 34.37 44.0646 33.902C43.8006 33.434 43.6686 32.774 43.6686 31.922V27.188H42.3906V26.054L43.8666 25.154L44.6406 23.084H46.3506V25.172H49.1046V27.188H46.3506V31.922C46.3506 32.294 46.4586 32.576 46.6746 32.768C46.8906 32.948 47.1726 33.038 47.5206 33.038Z" fill="white"/>
<path d="M37.1347 24.9919C38.1907 24.9919 39.0367 25.2799 39.6727 25.8559C40.3087 26.4199 40.6267 27.3319 40.6267 28.5919V34.9999H37.9447V29.2579C37.9447 28.5499 37.8187 28.0219 37.5667 27.6739C37.3147 27.3139 36.9127 27.1339 36.3607 27.1339C35.5447 27.1339 34.9867 27.4159 34.6867 27.9799C34.3867 28.5319 34.2367 29.3299 34.2367 30.3739V34.9999H31.5547V25.1719H33.6067L33.9667 26.4319H34.1107C34.4227 25.9279 34.8487 25.5619 35.3887 25.3339C35.9407 25.1059 36.5227 24.9919 37.1347 24.9919Z" fill="white"/>
<path d="M27.4189 21.3201C27.8149 21.3201 28.1569 21.4161 28.4449 21.6081C28.7329 21.7881 28.8769 22.1301 28.8769 22.6341C28.8769 23.1261 28.7329 23.4681 28.4449 23.6601C28.1569 23.8521 27.8149 23.9481 27.4189 23.9481C27.0109 23.9481 26.6629 23.8521 26.3749 23.6601C26.0989 23.4681 25.9609 23.1261 25.9609 22.6341C25.9609 22.1301 26.0989 21.7881 26.3749 21.6081C26.6629 21.4161 27.0109 21.3201 27.4189 21.3201ZM28.7509 25.1721V35.0001H26.0689V25.1721H28.7509Z" fill="white"/>
<path d="M23.8501 30.0679C23.8501 31.6999 23.4181 32.9599 22.5541 33.8479C21.7021 34.7359 20.5381 35.1799 19.0621 35.1799C18.1501 35.1799 17.3341 34.9819 16.6141 34.5859C15.9061 34.1899 15.3481 33.6139 14.9401 32.8579C14.5321 32.0899 14.3281 31.1599 14.3281 30.0679C14.3281 28.4359 14.7541 27.1819 15.6061 26.3059C16.4581 25.4299 17.6281 24.9919 19.1161 24.9919C20.0401 24.9919 20.8561 25.1899 21.5641 25.5859C22.2721 25.9819 22.8301 26.5579 23.2381 27.3139C23.6461 28.0699 23.8501 28.9879 23.8501 30.0679ZM17.0641 30.0679C17.0641 31.0399 17.2201 31.7779 17.5321 32.2819C17.8561 32.7739 18.3781 33.0199 19.0981 33.0199C19.8061 33.0199 20.3161 32.7739 20.6281 32.2819C20.9521 31.7779 21.1141 31.0399 21.1141 30.0679C21.1141 29.0959 20.9521 28.3699 20.6281 27.8899C20.3161 27.3979 19.8001 27.1519 19.0801 27.1519C18.3721 27.1519 17.8561 27.3979 17.5321 27.8899C17.2201 28.3699 17.0641 29.0959 17.0641 30.0679Z" fill="white"/>
<path d="M7.93994 22.1479C9.59594 22.1479 10.8019 22.5079 11.5579 23.2279C12.3259 23.9359 12.7099 24.9139 12.7099 26.1619C12.7099 26.9179 12.5539 27.6199 12.2419 28.2679C11.9299 28.9159 11.4079 29.4379 10.6759 29.8339C9.95594 30.2299 8.97194 30.4279 7.72394 30.4279H6.55394V35H3.83594V22.1479H7.93994ZM7.79594 24.3799H6.55394V28.1959H7.45394C8.22194 28.1959 8.82794 28.0459 9.27194 27.7459C9.72794 27.4339 9.95594 26.9359 9.95594 26.2519C9.95594 25.0039 9.23594 24.3799 7.79594 24.3799Z" fill="white"/>
</svg>
