<svg width="156" height="154" viewBox="0 0 156 154" fill="none" xmlns="http://www.w3.org/2000/svg">
<mask id="path-1-outside-1_536_3177" maskUnits="userSpaceOnUse" x="-4.44995" y="-6.35538" width="167.581" height="167.581" fill="black">
<rect fill="white" x="-4.44995" y="-6.35538" width="167.581" height="167.581"/>
<path d="M142.454 90.7418C134.972 125.393 100.816 147.42 66.1646 139.938C49.4072 136.32 35.6036 126.463 26.661 113.329L11.2165 111.927L19.6766 99.9283C15.4261 88.7348 14.2541 76.2247 16.9692 63.6492C24.4508 28.998 58.6059 6.97246 93.2572 14.4536C127.909 21.935 149.935 56.0903 142.454 90.7418Z"/>
</mask>
<path d="M142.454 90.7418C134.972 125.393 100.816 147.42 66.1646 139.938C49.4072 136.32 35.6036 126.463 26.661 113.329L11.2165 111.927L19.6766 99.9283C15.4261 88.7348 14.2541 76.2247 16.9692 63.6492C24.4508 28.998 58.6059 6.97246 93.2572 14.4536C127.909 21.935 149.935 56.0903 142.454 90.7418Z" fill="white"/>
<path d="M142.454 90.7418L148.319 92.0081L148.319 92.008L142.454 90.7418ZM66.1646 139.938L64.8984 145.803L64.8984 145.803L66.1646 139.938ZM26.661 113.329L31.6205 109.952L30.0257 107.61L27.2036 107.354L26.661 113.329ZM11.2165 111.927L6.31289 108.469L0.324432 116.963L10.674 117.902L11.2165 111.927ZM19.6766 99.9283L24.5802 103.386L26.4178 100.78L25.2858 97.7984L19.6766 99.9283ZM16.9692 63.6492L11.1044 62.383L11.1044 62.383L16.9692 63.6492ZM93.2572 14.4536L94.5235 8.58874L94.5234 8.58874L93.2572 14.4536ZM142.454 90.7418L136.589 89.4756C129.807 120.888 98.8435 140.855 67.4309 134.073L66.1646 139.938L64.8984 145.803C102.789 153.984 140.138 129.899 148.319 92.0081L142.454 90.7418ZM66.1646 139.938L67.4309 134.073C52.2376 130.793 39.7317 121.865 31.6205 109.952L26.661 113.329L21.7015 116.706C31.4756 131.061 46.5767 141.847 64.8984 145.803L66.1646 139.938ZM26.661 113.329L27.2036 107.354L11.7591 105.951L11.2165 111.927L10.674 117.902L26.1185 119.305L26.661 113.329ZM11.2165 111.927L16.1202 115.384L24.5802 103.386L19.6766 99.9283L14.7729 96.4708L6.31289 108.469L11.2165 111.927ZM19.6766 99.9283L25.2858 97.7984C21.4342 87.6554 20.371 76.3238 22.8341 64.9155L16.9692 63.6492L11.1044 62.383C8.13729 76.1255 9.41796 89.8142 14.0673 102.058L19.6766 99.9283ZM16.9692 63.6492L22.8341 64.9155C29.6163 33.5033 60.5787 13.5366 91.991 20.3185L93.2572 14.4536L94.5234 8.58874C56.633 0.408287 19.2853 24.4927 11.1044 62.383L16.9692 63.6492ZM93.2572 14.4536L91.991 20.3185C123.403 27.1005 143.371 58.0632 136.589 89.4756L142.454 90.7418L148.319 92.008C156.499 54.1174 132.414 16.7694 94.5235 8.58874L93.2572 14.4536Z" fill="#D5F0FE" mask="url(#path-1-outside-1_536_3177)"/>
<path d="M129.295 43.84C132.215 43.84 135.335 45.12 137.055 47.56C139.575 51.12 140.175 56.56 140.175 60.84C140.175 65.08 139.575 70.64 137.055 74.16C135.295 76.56 132.215 77.88 129.295 77.88C126.335 77.88 123.295 76.56 121.535 74.16C119.015 70.68 118.375 65.04 118.375 60.84C118.375 56.56 118.975 51.12 121.535 47.56C123.255 45.12 126.375 43.84 129.295 43.84ZM129.295 48.56C124.055 48.56 124.015 57.2 124.015 60.84C124.015 64.48 124.095 73.12 129.295 73.12C134.495 73.12 134.575 64.48 134.575 60.84C134.575 57.2 134.495 48.56 129.295 48.56Z" fill="#035AAB"/>
<path d="M104.1 43.84C107.02 43.84 110.14 45.12 111.86 47.56C114.38 51.12 114.98 56.56 114.98 60.84C114.98 65.08 114.38 70.64 111.86 74.16C110.1 76.56 107.02 77.88 104.1 77.88C101.14 77.88 98.0997 76.56 96.3397 74.16C93.8197 70.68 93.1797 65.04 93.1797 60.84C93.1797 56.56 93.7797 51.12 96.3397 47.56C98.0597 45.12 101.18 43.84 104.1 43.84ZM104.1 48.56C98.8597 48.56 98.8197 57.2 98.8197 60.84C98.8197 64.48 98.8997 73.12 104.1 73.12C109.3 73.12 109.38 64.48 109.38 60.84C109.38 57.2 109.3 48.56 104.1 48.56Z" fill="#035AAB"/>
<path d="M74.2644 57.2401C75.9844 56.0001 77.5844 55.5601 79.7044 55.5601C83.2244 55.5601 86.4244 57.3201 88.2644 60.3201C89.3844 62.1201 89.7844 64.4001 89.7844 66.5201C89.7844 73.2001 85.4644 77.8801 78.7044 77.8801C74.7844 77.8801 71.0244 76.2001 69.0244 72.7201C68.5044 71.8001 67.9844 70.6801 67.9844 69.6001C67.9844 68.0401 69.1444 67.2401 70.6244 67.2401C72.6244 67.2401 73.1044 68.3201 73.6644 69.9601C74.3444 71.9601 76.5444 73.1201 78.5844 73.1201C82.4644 73.1201 84.1844 70.0801 84.1844 66.5601C84.1844 63.1201 82.3044 60.2801 78.6244 60.2801C77.6644 60.2801 76.7444 60.4801 75.9044 60.8801C75.0244 61.3201 74.7444 61.6801 74.1044 62.3601C73.4244 63.0801 72.6644 63.4001 71.6644 63.4001C69.9844 63.4001 69.0644 62.5201 69.2244 60.8001L70.3844 48.7201C70.7044 45.6801 71.9444 44.6801 74.9444 44.6801H85.8244C87.3844 44.6801 88.4244 45.4001 88.4244 47.0801C88.4244 48.7201 87.3844 49.4401 85.8244 49.4401H76.5044C75.5444 49.4401 74.9444 49.8801 74.8644 50.8801L74.2644 57.2401Z" fill="#035AAB"/>
<path d="M59.7891 59.56C60.6691 60.12 61.4691 60.6 62.2291 61.36C63.9091 63.12 64.5891 65.36 64.5891 67.76C64.5891 70.52 63.7491 73.12 61.7491 75.08C59.5491 77.2 56.7891 77.88 53.8291 77.88C50.3491 77.88 46.8691 76.92 44.7491 73.96C43.7491 72.56 42.7891 70.44 42.7891 68.68C42.7891 67 43.9091 66.2 45.5091 66.2C47.9891 66.2 48.1891 67.64 48.4291 69.24C48.7891 71.64 51.2691 73.12 53.6291 73.12C55.5091 73.12 57.3091 72.28 58.3091 70.68C58.8691 69.8 58.9891 68.68 58.9891 67.64C58.9891 64.2 57.0291 62.36 53.5891 62.36H52.9091C51.4691 62.36 50.6291 61.68 50.6291 60.16C50.6291 58.68 51.4291 58 52.9091 58H53.5091C56.5491 58 57.9091 55.96 57.9091 53.08C57.9091 50.44 56.3091 48.56 53.5491 48.56C50.8291 48.56 49.3491 50.16 48.9491 52.76C48.8291 53.8 48.5091 55.12 46.2691 55.12C44.7091 55.12 43.5891 54.32 43.5891 52.68C43.5891 50.96 44.4691 48.88 45.5091 47.52C47.4691 44.92 50.5091 43.84 53.6691 43.84C59.1491 43.84 63.5091 47.16 63.5091 52.92C63.5091 55.88 62.3491 58.08 59.7891 59.56Z" fill="#035AAB"/>
<path d="M32.0844 59.05H36.7344C39.4594 59.05 39.6594 60.45 39.6594 62.75C39.6594 65.7 39.5594 74.1 38.8594 76.6C38.5344 77.725 37.8594 78.7 36.6594 78.975C35.8594 79.15 34.3594 79.15 33.4844 79.15H33.0094C32.3344 79.15 31.3094 79.15 30.9844 79C30.3844 78.725 30.1094 78.1 30.1094 77.475C30.1094 76.325 30.8344 75.95 31.8844 75.95C32.6344 75.95 33.3844 76 34.1344 76C35.7844 76 35.8594 75.425 36.0594 73.9C36.4094 71.075 36.4844 66.3 36.4844 63.375V63C36.4844 62.4 36.4094 61.925 35.5594 61.925H31.0594C30.6344 62.875 29.9844 64.225 29.3844 65.05C29.0844 65.475 28.8094 65.75 28.2594 65.75C27.4344 65.75 26.5844 65.1 26.5844 64.225C26.5844 63.725 26.8844 63.3 27.1594 62.9C28.0344 61.6 28.9094 59.575 29.3094 58.075C29.7344 56.525 29.7594 55.625 31.0844 55.625C31.7844 55.625 32.6594 55.875 32.6594 56.7C32.6594 57.075 32.4844 57.825 32.0844 59.05ZM20.1094 64.85C19.2594 63.7 18.4594 62.9 17.4594 61.925C17.1344 61.625 16.9344 61.35 16.9344 60.9C16.9344 60.225 17.4844 59.35 18.3844 59.35C18.6344 59.35 18.8094 59.4 19.0344 59.525C19.6094 58.65 20.1094 57.725 20.5844 56.775C20.8844 56.25 21.1844 55.75 21.8594 55.75C22.5344 55.75 23.5594 56.25 23.5594 57.075C23.5594 57.6 23.0344 58.55 22.4594 59.425C22.0594 60.1 21.5594 60.9 21.0844 61.525C21.3344 61.825 21.5594 62.125 21.8094 62.425C22.7594 60.925 23.3094 60 23.7094 59.275C24.1844 58.4 24.4844 58.175 25.0844 58.175C25.8844 58.175 26.8094 58.675 26.8094 59.55C26.8094 59.9 26.6594 60.175 26.5094 60.45C26.1844 61 25.5344 61.925 25.1594 62.475C24.3344 63.7 23.4844 64.9 22.5344 66.025C23.2344 65.975 23.9344 65.925 24.6344 65.85C24.4844 65.5 24.2594 64.925 24.2594 64.55C24.2594 63.95 24.8844 63.6 25.4094 63.6C26.0844 63.6 26.3344 64.225 26.6344 65C26.9094 65.725 27.7094 67.875 27.7094 68.525C27.7094 69.225 27.0844 69.6 26.4594 69.6C25.8094 69.6 25.6094 69.15 25.3844 68.25C24.8344 68.35 24.2844 68.425 23.7094 68.5V78.05C23.7094 79.1 23.1844 79.4 22.2094 79.4C21.2594 79.4 20.8094 79 20.8094 78.05V68.775C20.1594 68.825 18.7094 68.975 18.1344 68.975C17.2344 68.975 16.8594 68.4 16.8594 67.55C16.8594 66.3 17.6344 66.225 19.0094 66.225C19.4094 65.775 19.7594 65.325 20.1094 64.85ZM29.2594 66.5C29.2594 65.7 30.1344 65.175 30.8594 65.175C31.6844 65.175 32.0594 65.775 32.8344 67.325C33.1844 68 34.2344 70.075 34.2344 70.725C34.2344 71.575 33.2594 72.125 32.4844 72.125C31.5844 72.125 31.3844 71.625 30.9344 70.425C30.6344 69.625 30.2594 68.8 29.8594 68.05C29.4844 67.375 29.2594 66.85 29.2594 66.5ZM25.6344 69.975C26.5594 69.975 26.6844 70.675 26.8344 71.425C27.0594 72.4 27.4094 74.375 27.4094 75.35C27.4094 76.275 27.1344 76.65 26.1844 76.65C25.1844 76.65 25.0344 76.175 24.8844 74.725C24.8094 74.05 24.7344 73.225 24.5594 72.15C24.4844 71.775 24.4094 71.35 24.4094 70.95C24.4094 70.225 24.9844 69.975 25.6344 69.975ZM18.8094 70.025C19.6344 70.025 20.0344 70.3 20.0344 71.15C20.0344 72.075 19.7344 75.225 19.5594 76.175C19.4094 76.95 19.2844 77.575 18.3344 77.575C17.6344 77.575 16.9344 77.325 16.9344 76.5C16.9344 76.25 16.9594 76.05 17.1094 75.35C17.4844 73.625 17.5594 72.4 17.6344 71.55C17.7344 70.45 17.8594 70.025 18.8094 70.025Z" fill="#035AAB"/>
<path d="M92.2516 93.7878L100.152 94.8878C100.927 95.0128 101.527 95.6878 101.527 96.4628C101.527 97.4378 100.652 98.1878 99.7016 98.0628L91.6766 96.9628C90.8766 96.8378 90.2516 96.1878 90.2516 95.3628C90.2516 94.6628 90.7516 94.0128 91.3516 93.8378C91.5266 93.7878 91.6766 93.7628 91.8516 93.7628C91.9766 93.7628 92.1016 93.7628 92.2516 93.7878ZM106.777 97.8628C106.777 96.9628 107.502 96.2628 108.402 96.2628C109.052 96.2628 109.552 96.5878 109.827 97.1878C110.027 97.6378 110.152 98.3878 110.152 100.188C110.152 108.313 104.402 113.788 96.3516 113.788C94.8266 113.788 93.3016 113.613 91.8516 113.113C91.0266 112.838 90.2266 112.288 90.2266 111.338C90.2266 110.513 90.9516 109.788 91.7766 109.788C92.0516 109.788 92.3516 109.863 92.6266 109.963C93.8766 110.363 95.1266 110.613 96.4516 110.613C102.677 110.613 106.902 106.463 106.902 100.238C106.902 99.7628 106.877 99.3128 106.827 98.7878C106.802 98.4378 106.777 98.0128 106.777 97.8628Z" fill="#035AAB"/>
<path d="M82.4984 96.7129H67.2984C66.4984 96.7129 65.8234 96.0129 65.8234 95.2129C65.8234 94.3879 66.4984 93.7129 67.3234 93.7129H82.5734C83.3984 93.7129 84.0734 94.3879 84.0734 95.2129C84.0734 96.1379 83.3484 96.7129 82.4984 96.7129ZM81.9734 103.138H66.0234C65.1984 103.138 64.5234 102.463 64.5234 101.638C64.5234 100.838 65.1984 100.138 65.9984 100.138H83.4484C84.0984 100.138 84.4984 100.288 84.8734 100.763C85.1484 101.113 85.1734 101.538 85.1734 102.213C85.1734 109.638 81.9234 113.763 74.2984 113.763C71.9234 113.763 69.5234 113.388 67.3734 112.338C66.3234 111.838 65.2484 111.263 65.2484 110.163C65.2484 109.313 65.9984 108.613 66.8484 108.613C67.1484 108.613 67.3984 108.713 68.0234 109.063C69.9234 110.213 72.1734 110.638 74.3484 110.638C79.5234 110.638 81.9234 108.288 81.9734 103.138Z" fill="#035AAB"/>
<path d="M62.4484 94.2378C62.4484 95.9628 61.0234 97.3628 59.3234 97.3628C57.6234 97.3628 56.1984 95.9378 56.1984 94.2628C56.1984 92.5628 57.6234 91.1378 59.3234 91.1378C61.0234 91.1378 62.4484 92.5378 62.4484 94.2378ZM60.7984 94.2628C60.7984 93.4378 60.1234 92.7878 59.3234 92.7878C58.5234 92.7878 57.8484 93.4628 57.8484 94.2628C57.8484 95.0378 58.5234 95.7378 59.3234 95.7378C60.1234 95.7378 60.7984 95.0628 60.7984 94.2628ZM55.1234 94.3128C55.1734 95.5128 55.6984 96.6128 56.5734 97.4128H41.3234C40.4734 97.4128 39.7734 96.7128 39.7734 95.8628C39.7734 95.0128 40.4984 94.3128 41.3234 94.3128H55.1234ZM56.7984 97.5878C57.4984 98.1378 58.4234 98.4378 59.3484 98.4378C59.5984 98.4378 59.8484 98.4128 60.0984 98.3878C59.9484 101.388 59.7484 104.463 58.6734 107.338C56.8984 112.013 53.3484 113.738 48.5234 113.738C46.5484 113.738 44.5984 113.438 42.7984 112.638C41.5734 112.113 40.1484 111.463 40.1484 110.238C40.1484 109.388 40.8734 108.638 41.7484 108.638C42.1734 108.638 42.5234 108.838 43.0484 109.138C44.7484 110.088 46.6484 110.513 48.5734 110.513C51.9234 110.513 54.3984 109.363 55.6734 106.138C56.7234 103.488 56.7484 100.413 56.7984 97.5878Z" fill="#035AAB"/>
</svg>
