<svg width="197" height="23" viewBox="0 0 197 23" fill="none" xmlns="http://www.w3.org/2000/svg">
<path d="M190.172 15.4647C189.17 15.4647 188.517 14.8818 188.517 13.8793C188.517 12.7136 188.913 11.408 189.496 10.4288C190.149 9.35639 191.035 8.56372 191.921 7.72441C192.574 7.09494 192.993 6.58203 192.993 5.57953C192.993 3.99418 191.897 3.06162 190.382 3.06162C188.727 3.06162 187.934 3.87761 187.818 5.46296C187.724 6.62866 187.211 7.09494 186.069 7.09494C185.16 7.09494 184.344 6.51209 184.344 5.5329C184.344 4.60034 184.927 3.80766 185.603 3.22481C186.978 2.0358 188.82 1.59283 190.592 1.59283C193.343 1.59283 196.514 2.59534 196.514 5.8593C196.514 6.88511 196.211 7.67779 195.628 8.37721C195.231 8.84349 194.718 9.33308 194.206 9.77604C192.713 11.0583 192.154 11.5246 191.944 13.5529C191.804 14.9284 191.315 15.4647 190.172 15.4647ZM190.172 16.6304C191.338 16.6304 192.294 17.5862 192.294 18.7519C192.294 19.8943 191.315 20.8502 190.172 20.8502C189.03 20.8502 188.051 19.8943 188.051 18.7519C188.051 17.5862 189.007 16.6304 190.172 16.6304Z" fill="#444444"/>
<path d="M170.544 6.39551C170.917 6.3722 172.083 6.25563 172.945 6.16237C173.342 6.11574 173.575 6.09243 173.621 6.09243C173.994 6.09243 174.297 6.41883 174.297 6.86179C174.297 7.39801 173.924 7.58453 173.458 7.65447C172.595 7.77104 171.5 7.84098 170.521 7.91092C170.521 10.2889 170.497 12.6437 170.637 15.0217C171.616 15.418 172.549 15.8843 173.458 16.4205C174.274 16.9101 174.904 17.2831 174.904 18.0525C174.904 18.8219 174.391 19.6845 173.551 19.6845C173.038 19.6845 172.712 19.428 171.966 18.7286C171.593 18.4022 171.22 18.0758 170.824 17.7727C170.777 18.5421 170.637 19.2648 170.171 19.8943C169.192 21.1999 167.233 21.5263 165.695 21.5263C163.48 21.5263 160.542 20.8735 160.542 18.1225C160.542 15.1149 163.759 14.2057 166.231 14.2057C166.627 14.2057 167.023 14.229 167.42 14.2756C167.303 12.224 167.257 10.1491 167.233 8.07412C165.928 8.12075 164.622 8.16738 163.34 8.16738C162.874 8.16738 161.358 8.23732 161.008 8.12075C160.682 8.00418 160.519 7.7011 160.519 7.3747C160.519 6.90842 160.869 6.60534 161.335 6.60534C162.081 6.60534 162.827 6.62865 163.55 6.62865C164.785 6.62865 165.998 6.60534 167.21 6.55871V6.18569C167.21 5.27644 167.163 4.3672 167.163 3.43464C167.163 2.199 167.583 1.5462 168.912 1.5462C170.078 1.5462 170.637 2.15237 170.637 3.29475C170.637 4.32057 170.59 5.3697 170.544 6.39551ZM157.511 1.96586C158.421 1.96586 159.307 2.33888 159.307 3.3647C159.307 3.90092 159.05 5.62615 158.887 6.6986C158.56 8.98337 158.467 11.3148 158.467 13.6229C158.467 15.5346 158.63 17.423 158.817 19.3348C158.84 19.498 158.864 19.6612 158.864 19.8011C158.864 20.8968 157.908 21.1533 156.998 21.1533C156.159 21.1533 155.646 20.4772 155.53 19.7078C155.25 17.6795 155.227 15.6045 155.227 13.5762C155.227 10.7552 155.436 7.91092 155.693 5.11324C155.786 4.13406 155.879 3.10824 156.136 2.57202C156.369 2.08243 157.022 1.96586 157.511 1.96586ZM167.466 16.0941C167.093 16.0009 166.697 15.9076 166.301 15.9076C164.879 15.9076 163.55 16.5371 163.55 18.1458C163.55 19.3814 164.575 19.8244 165.671 19.8244C166.977 19.8244 167.513 19.1016 167.513 17.8427C167.513 17.2598 167.49 16.677 167.466 16.0941Z" fill="#444444"/>
<path d="M135.966 4.97337H139.207C139.627 4.97337 140 5.15988 140 5.60285C140 6.06913 139.627 6.25564 139.207 6.25564H137.155C137.645 7.04832 138.298 7.72442 138.974 8.3539C139.114 8.49378 139.207 8.65698 139.207 8.86681C139.207 9.21652 138.927 9.49628 138.577 9.49628C137.971 9.49628 136.433 8.21401 135.966 7.79436V9.89262C135.966 10.7086 135.71 11.408 134.521 11.408C133.378 11.408 133.029 10.7086 133.029 9.89262V7.91093C131.98 9.16989 130.651 10.2423 129.229 11.035C129.112 11.1049 128.995 11.1516 128.856 11.1516C128.506 11.1516 128.203 10.8485 128.203 10.4988C128.203 10.2656 128.319 10.1024 128.483 9.96256C129.602 8.93675 130.627 7.67779 131.257 6.25564H129.112C128.716 6.25564 128.319 6.06913 128.319 5.60285C128.319 5.15988 128.716 4.97337 129.112 4.97337H133.029V2.22232C133.029 1.40633 133.448 0.706909 134.521 0.706909C135.71 0.706909 135.966 1.42964 135.966 2.26895V4.97337ZM143.45 5.46296H149.092C149.488 5.46296 149.885 5.64948 149.885 6.11576C149.885 6.55872 149.488 6.74523 149.092 6.74523H148.486C148.416 10.6853 148.136 14.3689 145.688 17.6329C146.691 18.9851 147.996 20.1275 149.395 21.1067C149.652 21.2932 149.908 21.5263 149.908 21.8061C149.908 22.1558 149.605 22.4589 149.255 22.4589C148.976 22.4589 148.043 21.9926 147.67 21.7828C146.411 21.1067 145.292 20.1974 144.289 19.1716C142.797 20.5937 141.165 21.5263 139.463 22.2024C138.997 22.3889 138.811 22.4589 138.717 22.4589C138.368 22.4589 138.088 22.1558 138.088 21.8294C138.088 21.4797 138.298 21.2932 138.577 21.1766C140.349 20.3839 141.771 19.1949 142.984 17.5629C141.538 15.5346 140.513 13.0167 140.466 10.4988C140.046 11.1049 139.347 12.0375 138.904 12.0375C138.554 12.0375 138.251 11.7577 138.251 11.408C138.251 11.3381 138.274 11.2215 138.414 10.9651C139.86 8.1907 140.746 5.29977 141.189 2.22232C141.305 1.33639 141.678 0.776852 142.634 0.776852C143.45 0.776852 144.569 1.17319 144.569 2.12906C144.569 3.03831 143.846 4.62366 143.45 5.46296ZM129.532 0.940049C129.951 0.940049 130.767 1.47627 131.117 1.70941C131.677 2.10575 132.586 2.78185 132.586 3.45796C132.586 4.25064 131.677 4.78686 130.977 4.78686C130.231 4.78686 130.068 4.27395 129.835 3.57453C129.625 2.96837 129.322 2.3622 129.042 1.94255C128.925 1.75604 128.902 1.66278 128.902 1.56953C128.902 1.24313 129.182 0.940049 129.532 0.940049ZM137.109 4.76354C136.759 4.76354 136.456 4.46046 136.456 4.11075C136.456 3.99418 136.549 3.80767 136.689 3.57453C136.969 3.10825 137.249 2.47877 137.482 1.77935C137.645 1.28976 137.995 0.986678 138.531 0.986678C139.207 0.986678 140.209 1.47627 140.209 2.29226C140.209 3.29476 137.412 4.76354 137.109 4.76354ZM142.797 6.74523C142.518 7.28145 142.214 7.81768 141.888 8.3539C141.958 8.33058 142.005 8.33058 142.075 8.33058C142.937 8.33058 143.567 8.89012 143.59 9.77605C143.613 11.5013 143.846 13.2498 144.336 14.9284C145.222 12.3406 145.222 9.44966 145.222 6.74523H142.797ZM134.544 13.5296H139.417C139.813 13.5296 140.209 13.7161 140.209 14.1824C140.209 14.6254 139.813 14.8119 139.417 14.8119H138.577C138.344 16.1641 137.785 17.4464 136.969 18.5421C138.065 18.9151 138.741 19.1949 138.741 19.9643C138.741 20.687 138.158 21.5263 137.365 21.5263C137.039 21.5263 136.782 21.3631 136.549 21.1766C136.13 20.8502 135.687 20.5471 135.244 20.244C134.404 20.8502 133.472 21.3398 132.516 21.6662C131.607 21.9693 129.741 22.4822 128.786 22.4822C128.436 22.4822 128.133 22.2024 128.133 21.8294C128.133 21.4097 128.459 21.2232 128.809 21.1533C130.418 20.8502 132.05 20.3606 133.239 19.1949C132.213 18.7753 131.14 18.4722 130.068 18.2157C129.648 18.1225 129.345 17.8427 129.345 17.3997C129.345 17.1899 129.415 17.0267 129.532 16.8402C129.928 16.1874 130.301 15.5113 130.651 14.8119H129.019C128.599 14.8119 128.226 14.6254 128.226 14.1824C128.226 13.7161 128.599 13.5296 129.019 13.5296H131.234C131.42 13.04 131.56 12.6204 131.677 12.224C131.84 11.6412 132.213 11.2215 133.029 11.2215C133.682 11.2215 134.941 11.5712 134.941 12.4338C134.941 12.8069 134.731 13.2032 134.544 13.5296ZM133.821 14.8119C133.355 15.5812 132.889 16.3273 132.446 16.8635C132.283 17.05 132.259 17.12 132.259 17.1899C132.259 17.2832 132.329 17.3764 132.469 17.3997C133.075 17.5163 133.728 17.6562 134.358 17.7961C134.894 16.8635 135.314 15.8843 135.547 14.8119H133.821Z" fill="#444444"/>
<path d="M121.678 4.60036V19.1716C121.678 20.9202 120.629 21.7828 118.881 21.7828H108.016C106.291 21.7828 105.219 20.9202 105.219 19.1716V4.60036C105.219 2.80519 106.338 1.9892 108.016 1.9892H118.881C119.603 1.9892 120.396 2.15239 120.932 2.64199C121.515 3.17821 121.678 3.87763 121.678 4.60036ZM108.436 11.0117H118.368V4.06414C118.368 3.6678 117.995 3.29478 117.575 3.29478H109.205C108.809 3.29478 108.436 3.6678 108.436 4.06414V11.0117ZM108.436 12.3173V19.7078C108.436 20.1042 108.809 20.5005 109.205 20.5005H117.575C117.995 20.5005 118.368 20.1042 118.368 19.7078V12.3173H108.436Z" fill="#444444"/>
<path d="M89.8327 3.27145V2.03581C89.8327 1.21982 90.5555 0.706909 91.4414 0.706909C92.4672 0.706909 93.0267 1.26644 93.0267 2.26895V3.27145H95.8944C97.3398 3.27145 98.319 3.99418 98.319 5.50959V6.83849C98.319 7.8643 97.8294 8.30727 96.8502 8.30727C95.7312 8.30727 95.3581 7.72442 95.3581 6.76855V5.25314C95.3581 4.78686 95.1716 4.57703 94.682 4.57703H88.4805C87.9909 4.57703 87.8044 4.78686 87.8044 5.25314V6.83849C87.8044 7.84099 87.2682 8.30727 86.3123 8.30727C85.1699 8.30727 84.8435 7.67779 84.8435 6.69861V5.50959C84.8435 3.99418 85.8227 3.27145 87.2682 3.27145H89.8327ZM77.4297 21.1533V3.24813C77.4297 1.98918 78.3156 1.47627 79.4813 1.47627H83.5146C84.5171 1.47627 85.2166 2.01249 85.2166 3.01499C85.2166 3.22482 85.1932 3.43465 85.1233 3.62116L82.8385 9.16989C82.7686 9.33309 82.7453 9.40303 82.7453 9.47297C82.7453 9.56623 82.7919 9.65948 82.8618 9.75274C83.3514 10.4755 83.7245 11.1749 84.0509 11.9209C84.5638 13.0633 84.7969 14.2757 84.7969 15.5113C84.7969 16.4905 84.6337 17.6329 83.7944 18.2623C83.3514 18.5887 82.8852 18.6587 82.3489 18.6587H81.1366C80.7403 18.6587 80.3439 18.4489 80.3439 18.0059C80.3439 17.5396 80.7403 17.3531 81.1366 17.3531H81.3464C81.9992 17.3531 82.2324 16.4439 82.2324 15.0683C82.2324 13.1799 81.6495 11.8277 80.8335 10.1491C80.717 9.91594 80.6004 9.65948 80.6004 9.3564C80.6004 9.23983 80.6237 9.12326 80.647 9.03L82.2091 3.5279C82.2324 3.43465 82.3023 3.22482 82.3023 3.17819C82.3023 2.89842 82.0225 2.78185 81.7894 2.78185H80.8102C80.3439 2.78185 80.2041 2.92174 80.2041 3.38802V21.1067C80.2041 22.1092 79.7844 22.5987 78.8285 22.5987C77.896 22.5987 77.4297 22.1325 77.4297 21.1533ZM95.5913 9.49628H87.5247C87.105 9.49628 86.732 9.28646 86.732 8.84349C86.732 8.37721 87.105 8.1907 87.5247 8.1907H95.5913C95.9876 8.1907 96.384 8.37721 96.384 8.84349C96.384 9.28646 95.9876 9.49628 95.5913 9.49628ZM90.2058 13.4597C90.2058 14.9751 90.1125 16.4672 89.6462 17.8427C89.11 19.428 87.8277 20.5937 86.3823 21.433C85.7295 21.8061 84.0042 22.5055 83.4214 22.5055C83.0717 22.5055 82.7919 22.2024 82.7919 21.8527C82.7919 21.503 83.0484 21.3165 83.3514 21.1766C85.2632 20.3606 86.2424 19.3115 86.6853 18.0059C87.105 16.7469 87.1749 15.6279 87.1749 13.4597H85.543C85.1466 13.4597 84.7503 13.2732 84.7503 12.8069C84.7503 12.3639 85.1466 12.1774 85.543 12.1774H97.7362C98.1325 12.1774 98.5289 12.3639 98.5289 12.8069C98.5289 13.2732 98.1325 13.4597 97.7362 13.4597H94.379V20.2907C94.379 20.7569 94.5422 20.8968 95.0084 20.8968H95.2649C95.8944 20.8968 96.0809 20.7803 96.1741 20.1508C96.2208 19.8477 96.2441 19.4514 96.2674 18.9384C96.314 18.1225 96.5005 17.6562 97.3865 17.6562C98.1325 17.6562 98.7853 17.9126 98.7853 18.7753C98.7853 19.5213 98.7154 20.4539 98.389 21.13C97.946 22.0392 97.1067 22.1558 96.1508 22.1558H93.4464C92.304 22.1558 91.3948 21.6429 91.3948 20.3839V13.4597H90.2058Z" fill="#444444"/>
<path d="M62.1371 12.737C60.6684 15.9776 58.64 18.5188 55.6092 20.4306C53.8374 21.5497 52.1821 22.2957 51.7624 22.2957C51.436 22.2957 51.1562 21.9693 51.1562 21.6429C51.1562 21.3631 51.2728 21.1533 51.7857 20.9202C54.8632 19.4747 57.1713 16.7237 58.8032 13.3431C59.8757 11.1283 60.5751 7.28149 60.5751 5.43969V3.24817C60.5751 2.78189 60.3886 2.57206 59.899 2.57206H56.0056C55.6092 2.57206 55.2129 2.38555 55.2129 1.94259C55.2129 1.47631 55.6092 1.28979 56.0056 1.28979H61.531C62.9764 1.28979 63.9556 2.01253 63.9556 3.52794V5.67282C63.9556 9.05335 64.7017 12.2007 66.4502 15.1383C67.919 17.5863 70.0173 19.7078 72.6051 20.9435C72.9082 21.0834 73.188 21.2699 73.188 21.6196C73.188 21.9693 72.9082 22.2724 72.5585 22.2724C72.4186 22.2724 72.1155 22.1558 71.6493 21.946C69.7375 21.1067 68.9215 20.5705 67.4061 19.4747C64.9581 17.7028 63.2795 15.5346 62.1371 12.737Z" fill="#444444"/>
<path d="M38.1437 4.81017H44.2287C45.1613 4.81017 46.0239 4.95006 46.5834 5.78936C46.8632 6.20901 46.8865 6.65198 46.8865 7.21151V7.42134C46.8865 9.61285 46.8166 11.7811 46.7 13.9726C46.6067 15.6745 46.4902 17.9826 46.0006 19.6146C45.3245 21.9693 44.0189 22.319 41.7807 22.319H38.4935C38.0971 22.319 37.7008 22.1325 37.7008 21.6895C37.7008 21.2232 38.0971 21.0367 38.4935 21.0367H40.5917C41.2212 21.0367 41.8274 21.0134 42.247 20.4772C42.5501 20.0808 42.7599 19.5912 42.8765 19.1016C43.5759 16.234 43.7391 11.3381 43.7391 8.33058C43.7391 8.05082 43.7391 7.79436 43.7391 7.53791C43.7391 6.74523 43.6459 6.11576 42.8532 6.11576H37.3744C36.9081 6.8618 34.4135 10.3822 33.6208 10.3822C33.2944 10.3822 32.9914 10.1024 32.9914 9.72942C32.9914 9.61285 33.0613 9.47297 33.1546 9.30977C34.2969 7.30477 35.1129 5.04331 35.416 2.73523C35.5792 1.63947 35.789 0.706909 37.1179 0.706909C38.0272 0.706909 39.2162 1.1965 39.2162 2.24563C39.2162 2.89842 38.5634 4.06412 38.1437 4.81017ZM27.9322 16.9568V8.68029H26.4168C26.0205 8.68029 25.6241 8.49378 25.6241 8.0275C25.6241 7.58454 26.0205 7.37471 26.4168 7.37471H27.9322V2.64197C27.9322 2.24563 28.0022 1.77935 28.2353 1.54621C28.6083 1.17319 29.028 1.07993 29.4709 1.07993C29.9372 1.07993 30.3802 1.14987 30.7299 1.56953C30.963 1.87261 31.033 2.24563 31.033 2.64197V7.37471H32.1054C32.5018 7.37471 32.8981 7.58454 32.8981 8.0275C32.8981 8.49378 32.5018 8.68029 32.1054 8.68029H31.033V16.0009C31.4293 15.861 32.5717 15.3714 32.8981 15.3714C33.2478 15.3714 33.5509 15.6745 33.5509 16.0242C33.5509 16.234 33.4809 16.3739 33.2711 16.5138C33.0613 16.6537 32.7815 16.8402 32.5717 16.9568C31.6625 17.4697 27.3494 19.7778 26.6033 19.7778C25.9272 19.7778 25.4609 19.0084 25.4609 18.4022C25.4609 17.8893 25.764 17.5163 26.2769 17.3764C26.8365 17.2132 27.2561 17.12 27.9322 16.9568ZM41.3611 11.1982H35.9289C35.5326 11.1982 35.1362 11.0117 35.1362 10.5687C35.1362 10.1024 35.5326 9.91594 35.9289 9.91594H41.3611C41.7574 9.91594 42.1538 10.1024 42.1538 10.5687C42.1538 11.0117 41.7574 11.1982 41.3611 11.1982ZM34.5301 19.125C33.854 19.125 33.4343 18.3556 33.4343 17.7494C33.4343 17.05 33.854 16.7469 34.5068 16.6304C36.9314 16.2107 39.3328 15.6279 41.6875 14.8352C41.8973 14.7652 41.9906 14.7419 42.1538 14.7419C42.5035 14.7419 42.8065 15.045 42.8065 15.3947C42.8065 15.6978 42.5967 15.8843 42.317 16.0475C40.1254 17.2598 37.7707 18.1225 35.3927 18.9151C35.043 19.0317 34.6933 19.125 34.5301 19.125Z" fill="#444444"/>
<path d="M12.473 2.89842V12.3173H20.8893C21.309 12.3173 21.682 12.5038 21.682 12.9701C21.682 13.413 21.309 13.5995 20.8893 13.5995H12.473V20.9434C12.473 21.3398 12.4497 21.7594 12.1699 22.0392C11.8202 22.3889 11.3073 22.5754 10.8177 22.5754C10.2348 22.5754 9.55874 22.3889 9.34891 21.7594C9.25565 21.4797 9.20903 21.1533 9.20903 20.8502V13.5995H0.792676C0.396338 13.5995 0 13.413 0 12.9701C0 12.5038 0.396338 12.3173 0.792676 12.3173H9.20903V2.89842H1.77186C1.35221 2.89842 0.979188 2.71191 0.979188 2.24563C0.979188 1.80266 1.35221 1.59283 1.77186 1.59283H20.0267C20.4231 1.59283 20.8194 1.80266 20.8194 2.24563C20.8194 2.71191 20.4231 2.89842 20.0267 2.89842H12.473ZM2.86762 4.0408C3.07745 4.0408 3.42716 4.29726 3.82349 4.64697C4.56954 5.27644 5.40885 6.23232 5.68861 6.55871C6.29478 7.28145 7.5071 8.7036 7.5071 9.63616C7.5071 10.662 6.59786 11.5013 5.57204 11.5013C4.52291 11.5013 4.26646 10.8019 4.05663 9.91593C3.68361 8.28395 3.19402 6.72191 2.42466 5.2065C2.3314 5.01999 2.21483 4.81017 2.21483 4.64697C2.21483 4.29726 2.51791 4.0408 2.86762 4.0408ZM17.8585 4.0408C18.7211 4.0408 19.9335 4.67028 19.9335 5.60284C19.9335 5.97586 19.677 6.46546 19.304 6.97837C18.7211 7.81767 17.8585 8.68029 17.4389 9.09994C16.9726 9.56622 15.0842 11.3614 14.5712 11.3614C14.2215 11.3614 13.9185 11.0583 13.9185 10.7319C13.9185 10.5221 14.035 10.3589 14.1516 10.1957C15.2007 8.65697 15.8535 6.88511 16.4364 5.11325C16.6462 4.46046 17.1358 4.0408 17.8585 4.0408Z" fill="#444444"/>
</svg>
