<svg width="53" height="72" viewBox="0 0 53 72" fill="none" xmlns="http://www.w3.org/2000/svg">
<path d="M26.3712 0.443848C11.8126 0.443848 0.00726477 13.2588 0 29.082C0 44.9053 26.3493 71.6958 26.3493 71.6958C26.3493 71.6958 52.7204 44.9211 52.7204 29.0978C52.7277 13.2825 40.9298 0.443848 26.3712 0.443848Z" fill="#C1E1C4"/>
<path d="M30.0453 42.0278C30.0453 42.9158 29.7753 43.6238 29.2353 44.1518C28.7073 44.6798 28.0532 45.0398 27.2732 45.2318V45.2858C28.2932 45.4178 29.0732 45.7358 29.6132 46.2398C30.1532 46.7438 30.4233 47.4158 30.4233 48.2558C30.4233 48.9998 30.2373 49.6718 29.8653 50.2718C29.5053 50.8598 28.9413 51.3278 28.1733 51.6758C27.4173 52.0118 26.4393 52.1798 25.2393 52.1798C23.8473 52.1798 22.6113 51.9458 21.5312 51.4778V49.1738C22.0833 49.4498 22.6592 49.6598 23.2592 49.8038C23.8592 49.9478 24.4233 50.0198 24.9513 50.0198C25.9233 50.0198 26.6013 49.8518 26.9853 49.5158C27.3813 49.1798 27.5792 48.7058 27.5792 48.0938C27.5792 47.7458 27.4893 47.4458 27.3093 47.1938C27.1293 46.9418 26.8112 46.7558 26.3552 46.6358C25.9112 46.5038 25.2873 46.4378 24.4833 46.4378H23.5113V44.3498H24.5012C25.2932 44.3498 25.8932 44.2778 26.3012 44.1338C26.7212 43.9778 27.0032 43.7738 27.1472 43.5218C27.3032 43.2578 27.3813 42.9578 27.3813 42.6218C27.3813 42.1658 27.2373 41.8118 26.9493 41.5598C26.6733 41.2958 26.2053 41.1638 25.5453 41.1638C24.9333 41.1638 24.3993 41.2718 23.9433 41.4878C23.4873 41.7038 23.1092 41.9078 22.8092 42.0998L21.5492 40.2278C22.0532 39.8678 22.6412 39.5678 23.3132 39.3278C23.9972 39.0878 24.8072 38.9678 25.7432 38.9678C27.0633 38.9678 28.1073 39.2378 28.8752 39.7778C29.6553 40.3058 30.0453 41.0558 30.0453 42.0278Z" fill="white"/>
<path d="M47.5206 33.038C47.8206 33.038 48.1086 33.014 48.3846 32.966C48.6606 32.906 48.9366 32.828 49.2126 32.732V34.73C48.9246 34.862 48.5646 34.97 48.1326 35.054C47.7126 35.138 47.2506 35.18 46.7466 35.18C46.1586 35.18 45.6306 35.084 45.1626 34.892C44.7066 34.7 44.3406 34.37 44.0646 33.902C43.8006 33.434 43.6686 32.774 43.6686 31.922V27.188H42.3906V26.054L43.8666 25.154L44.6406 23.084H46.3506V25.172H49.1046V27.188H46.3506V31.922C46.3506 32.294 46.4586 32.576 46.6746 32.768C46.8906 32.948 47.1726 33.038 47.5206 33.038Z" fill="white"/>
<path d="M37.1347 24.9922C38.1907 24.9922 39.0367 25.2802 39.6727 25.8562C40.3087 26.4202 40.6267 27.3322 40.6267 28.5922V35.0002H37.9447V29.2582C37.9447 28.5502 37.8187 28.0222 37.5667 27.6742C37.3147 27.3142 36.9127 27.1342 36.3607 27.1342C35.5447 27.1342 34.9867 27.4162 34.6867 27.9802C34.3867 28.5322 34.2367 29.3302 34.2367 30.3742V35.0002H31.5547V25.1722H33.6067L33.9667 26.4322H34.1107C34.4227 25.9282 34.8487 25.5622 35.3887 25.3342C35.9407 25.1062 36.5227 24.9922 37.1347 24.9922Z" fill="white"/>
<path d="M27.4189 21.3198C27.8149 21.3198 28.1569 21.4158 28.4449 21.6078C28.7329 21.7878 28.8769 22.1298 28.8769 22.6338C28.8769 23.1258 28.7329 23.4678 28.4449 23.6598C28.1569 23.8518 27.8149 23.9478 27.4189 23.9478C27.0109 23.9478 26.6629 23.8518 26.3749 23.6598C26.0989 23.4678 25.9609 23.1258 25.9609 22.6338C25.9609 22.1298 26.0989 21.7878 26.3749 21.6078C26.6629 21.4158 27.0109 21.3198 27.4189 21.3198ZM28.7509 25.1718V34.9998H26.0689V25.1718H28.7509Z" fill="white"/>
<path d="M23.8501 30.0682C23.8501 31.7002 23.4181 32.9602 22.5541 33.8482C21.7021 34.7362 20.5381 35.1802 19.0621 35.1802C18.1501 35.1802 17.3341 34.9822 16.6141 34.5862C15.9061 34.1902 15.3481 33.6142 14.9401 32.8582C14.5321 32.0902 14.3281 31.1602 14.3281 30.0682C14.3281 28.4362 14.7541 27.1822 15.6061 26.3062C16.4581 25.4302 17.6281 24.9922 19.1161 24.9922C20.0401 24.9922 20.8561 25.1902 21.5641 25.5862C22.2721 25.9822 22.8301 26.5582 23.2381 27.3142C23.6461 28.0702 23.8501 28.9882 23.8501 30.0682ZM17.0641 30.0682C17.0641 31.0402 17.2201 31.7782 17.5321 32.2822C17.8561 32.7742 18.3781 33.0202 19.0981 33.0202C19.8061 33.0202 20.3161 32.7742 20.6281 32.2822C20.9521 31.7782 21.1141 31.0402 21.1141 30.0682C21.1141 29.0962 20.9521 28.3702 20.6281 27.8902C20.3161 27.3982 19.8001 27.1522 19.0801 27.1522C18.3721 27.1522 17.8561 27.3982 17.5321 27.8902C17.2201 28.3702 17.0641 29.0962 17.0641 30.0682Z" fill="white"/>
<path d="M7.93994 22.1479C9.59594 22.1479 10.8019 22.5079 11.5579 23.2279C12.3259 23.9359 12.7099 24.9139 12.7099 26.1619C12.7099 26.9179 12.5539 27.6199 12.2419 28.2679C11.9299 28.9159 11.4079 29.4379 10.6759 29.8339C9.95594 30.2299 8.97194 30.4279 7.72394 30.4279H6.55394V35H3.83594V22.1479H7.93994ZM7.79594 24.3799H6.55394V28.1959H7.45394C8.22194 28.1959 8.82794 28.0459 9.27194 27.7459C9.72794 27.4339 9.95594 26.9359 9.95594 26.2519C9.95594 25.0039 9.23594 24.3799 7.79594 24.3799Z" fill="white"/>
</svg>
