<svg width="347" height="118" viewBox="0 0 347 118" fill="none" xmlns="http://www.w3.org/2000/svg">
<path d="M242.624 97.4103V113.778C242.624 115.842 240.896 117.57 238.784 117.57C236.72 117.57 234.992 115.842 234.992 113.778V79.2663C234.992 77.1543 236.72 75.4263 238.832 75.4263C240.896 75.4263 242.624 77.1543 242.624 79.2183V89.4423C247.328 91.4583 252.368 92.4183 257.456 92.4183C259.328 92.4183 261.2 92.2743 262.976 91.8903C264.512 91.6023 264.896 91.5543 265.424 91.5543C267.392 91.5543 268.928 93.3783 268.928 95.2983C268.928 96.4983 268.4 97.6023 267.392 98.2743C265.328 99.6183 260.096 99.8103 257.6 99.8103C252.512 99.8103 247.424 99.1863 242.624 97.4103Z" fill="#004898"/>
<path d="M184.02 77.8263L198.564 79.8903C200.388 80.1303 201.732 81.8583 201.732 83.6343C201.732 85.7463 199.812 87.7143 197.604 87.4263L182.964 85.3623C181.044 85.1223 179.556 83.5863 179.556 81.5703C179.556 79.6503 181.236 77.8263 183.396 77.7783C183.54 77.7783 183.732 77.7783 184.02 77.8263ZM191.7 109.362C198.42 109.362 204.804 106.818 208.308 100.818C210.132 97.6503 210.756 93.8583 210.756 90.2103C210.756 89.4903 210.708 88.7223 210.66 87.9543C210.612 87.4263 210.564 86.8503 210.564 86.3223C210.564 84.2103 212.34 82.6263 214.356 82.6263C218.196 82.6263 218.34 87.0423 218.34 89.8263C218.34 92.8023 218.1 95.6823 217.332 98.5143C216.228 102.642 214.116 106.434 211.044 109.458C205.716 114.738 198.612 116.85 191.22 116.85C187.812 116.85 179.508 116.418 179.508 111.618C179.508 109.746 181.092 107.97 183.012 107.97C183.876 107.97 184.548 108.162 185.94 108.594C187.812 109.17 189.732 109.362 191.7 109.362Z" fill="#004898"/>
<path d="M146.243 95.3943C142.547 96.3063 138.755 96.7383 134.963 96.7383C132.083 96.7383 127.523 96.4023 127.523 92.5623C127.523 90.5463 129.107 88.6743 131.171 88.6743C131.555 88.6743 131.891 88.7223 132.275 88.7703C133.619 88.9143 134.963 89.0104 136.307 89.0104C145.379 89.0104 155.219 84.4503 160.451 77.9223C161.555 76.5783 162.371 75.9543 163.859 75.9543C165.875 75.9543 167.747 77.6343 167.747 79.6983C167.747 81.6663 165.107 84.7384 162.467 86.9944C159.923 89.2024 157.235 91.0264 154.067 92.5144V113.634C154.067 115.794 152.291 117.57 150.179 117.57C148.019 117.57 146.243 115.794 146.243 113.634V95.3943Z" fill="#004898"/>
<path d="M122.433 79.0262C122.433 82.4822 119.553 85.3622 116.097 85.3622C112.689 85.3622 109.761 82.4822 109.761 79.0262C109.761 75.5702 112.689 72.6902 116.097 72.6902C119.553 72.6902 122.433 75.5702 122.433 79.0262ZM102.225 81.6182H108.177C109.281 85.0262 112.497 87.4262 116.097 87.4262C116.913 87.4262 117.729 87.2822 118.545 87.0902C117.873 87.9542 116.817 88.5302 115.713 88.5302H102.129V113.826C102.129 115.746 100.497 117.33 98.5766 117.33C96.7046 117.33 95.0246 115.746 95.0246 113.826V88.5302H81.4886C79.6166 88.5302 78.0326 86.9942 78.0326 85.0742C78.0326 83.2022 79.6166 81.6182 81.4886 81.6182H94.9766V78.8342C94.9766 76.8662 96.6086 75.2342 98.5766 75.2342C100.545 75.2342 102.225 76.8662 102.225 78.8342V81.6182ZM118.929 79.0262C118.929 77.4902 117.633 76.1942 116.097 76.1942C114.561 76.1942 113.265 77.4902 113.265 79.0262C113.265 80.5622 114.609 81.8582 116.097 81.8582C117.633 81.8582 118.929 80.5622 118.929 79.0262ZM111.345 92.6102C112.881 92.6102 114.561 93.9542 114.657 95.1062C114.705 95.9702 114.753 97.3622 114.753 98.5142C114.753 102.354 115.857 106.098 118.689 108.786C119.601 109.65 120.513 110.658 120.513 112.002C120.513 113.874 118.881 115.41 117.057 115.41C115.329 115.41 113.793 114.018 112.689 112.818C110.529 110.466 109.089 107.442 108.321 104.37C107.841 102.306 107.745 100.242 107.745 98.1782C107.745 96.1142 107.841 95.2502 108.369 94.3382C108.945 93.2822 110.193 92.6102 111.345 92.6102ZM82.4006 98.5622C82.4006 97.1222 82.4006 96.0182 82.5446 95.1062C82.7846 93.5702 84.3206 92.6102 85.8086 92.6102C87.3446 92.6102 88.6886 93.6662 89.1686 95.1062C89.3606 95.7782 89.4566 96.3062 89.4566 98.6102C89.4566 102.498 88.6406 106.242 86.7686 109.65C85.5206 111.954 82.8806 115.41 80.0006 115.41C78.2246 115.41 76.6406 113.778 76.6406 112.002C76.6406 110.658 77.6006 109.65 78.5126 108.786C81.2966 106.098 82.4006 102.354 82.4006 98.5622Z" fill="#004898"/>
<path d="M333.294 7.60242V3.66642C333.294 2.17842 334.542 0.93042 336.03 0.93042C337.518 0.93042 338.766 2.17842 338.766 3.66642V7.60242C338.766 9.09042 337.566 10.3384 336.03 10.3384C334.302 10.3384 333.294 8.99442 333.294 7.60242ZM340.926 7.60242V3.66642C340.926 2.17842 342.174 0.93042 343.662 0.93042C345.198 0.93042 346.398 2.17842 346.398 3.66642V7.60242C346.398 9.09042 345.198 10.3384 343.662 10.3384C341.982 10.3384 340.926 9.13842 340.926 7.60242ZM331.278 5.97042V7.60242C331.278 10.1944 333.438 12.4024 336.03 12.4024C337.374 12.4024 338.526 11.9224 339.486 10.9624C338.862 12.1624 337.662 13.0264 336.27 13.0264H310.254C308.382 13.0264 306.798 11.6824 306.798 9.47442C306.798 7.55442 308.382 5.97042 310.302 5.97042H331.278ZM332.238 31.6984C332.238 39.2824 327.582 44.8024 319.71 44.8024C317.022 44.8024 312.414 43.8424 312.414 40.3864C312.414 38.6584 313.806 36.9784 315.63 36.9784C316.302 36.9784 316.974 37.1704 317.646 37.4584C318.462 37.7944 319.374 37.8904 320.286 37.8904C323.934 37.8904 325.182 34.8664 325.182 31.6984C325.182 27.1864 323.214 25.0744 319.278 23.3464C317.79 22.7224 316.59 21.6184 316.59 19.8904C316.59 18.1624 318.078 16.4344 319.854 16.4344C321.966 16.4344 324.798 17.9704 326.478 19.1704C330.462 22.0504 332.238 26.8984 332.238 31.6984ZM337.566 39.8104L334.302 24.5464C333.87 22.3384 335.646 20.1784 337.902 20.1784C339.486 20.1784 341.118 21.3304 341.454 22.9624L344.526 37.2664C344.718 38.2264 344.814 38.8024 344.814 38.9944C344.814 41.2504 343.23 42.6424 341.166 42.6424C339.198 42.6424 337.95 41.5864 337.566 39.8104ZM312.558 24.6424L309.294 39.7624C308.958 41.4424 307.47 42.6904 305.742 42.6904C303.582 42.6904 302.142 41.1064 302.094 39.1384C302.094 38.8504 302.142 38.4664 302.19 38.1784L305.406 23.1064C305.79 21.5224 307.326 20.3224 308.958 20.3224C310.878 20.3224 312.606 21.9064 312.606 23.8264C312.606 24.1144 312.606 24.3544 312.558 24.6424Z" fill="#494949"/>
<path d="M254.862 1.93823C256.446 1.93823 258.366 3.90623 259.998 5.58623C260.814 6.40223 262.398 8.03423 263.022 8.94623C263.406 9.52223 263.598 10.0502 263.598 10.7222C263.598 12.6902 261.774 14.4662 259.806 14.4662C258.75 14.4662 258.174 13.8422 256.542 12.1622C255.486 11.1062 254.574 10.2902 253.614 9.33023C251.838 7.60223 251.166 6.97823 251.166 5.63423C251.166 3.90623 252.894 1.93823 254.862 1.93823ZM288.558 18.4982C288.75 18.8342 288.798 19.0742 288.798 19.4582V19.9382H292.302C293.886 19.9382 294.99 20.5142 294.99 22.2902C294.99 24.0662 293.886 24.5942 292.302 24.5942H288.798V26.5142H293.31C295.038 26.5142 296.142 27.0902 296.142 29.0102C296.142 30.9302 295.038 31.5062 293.31 31.5062H285.87C286.974 31.9382 287.886 32.3222 289.614 32.7542C290.334 32.9462 291.39 33.1382 293.022 33.4742C294.27 33.7142 294.942 34.5782 294.942 35.8262C294.942 37.4582 293.742 38.8022 292.062 38.8022C290.526 38.8022 287.694 37.8902 286.206 37.3622C282.99 36.2102 282.03 35.8262 282.03 34.2902C282.03 32.9462 282.99 31.8902 284.238 31.5062H275.07C276.318 31.8902 277.278 32.9462 277.278 34.3382C277.278 35.6822 276.318 36.0662 274.494 36.8822C273.006 37.5062 269.742 38.6102 268.206 38.6102C266.286 38.6102 264.942 37.5062 264.942 35.5382C264.942 33.7142 266.094 33.4742 268.734 32.9942C270.558 32.6582 271.326 32.3222 273.006 31.6982C273.294 31.6022 273.39 31.5542 273.582 31.5062H266.238C264.462 31.5062 263.406 30.8822 263.406 28.9622C263.406 27.0902 264.558 26.5142 266.238 26.5142H270.27V24.5942H267.006C265.422 24.5942 264.318 24.0662 264.318 22.2902C264.318 20.5142 265.422 19.9382 267.006 19.9382H270.27V19.5062C270.27 19.1702 270.318 18.7862 270.462 18.4502C264.75 18.4502 263.694 18.4502 263.694 13.9382V12.4982C263.694 8.70623 264.414 7.98623 268.206 7.98623H271.614C271.998 7.98623 272.43 7.79423 272.43 7.41023V7.21823C272.43 6.97823 272.238 6.69023 271.614 6.69023H265.518C263.934 6.69023 263.166 6.06623 263.166 4.43423C263.166 2.85023 264.126 2.37023 265.518 2.37023H273.87C277.278 2.37023 278.382 2.85023 278.382 6.49823V7.93823C278.382 11.5382 277.278 12.0662 273.87 12.0662H270.51C269.982 12.0662 269.694 12.3542 269.694 12.8822V13.6022C269.694 14.6102 270.078 14.6102 271.326 14.6102C271.518 14.6102 271.71 14.6102 271.854 14.6102C273.246 14.6102 273.438 14.5622 273.918 13.6502C274.398 12.7382 275.07 12.4502 276.078 12.4502C277.374 12.4502 279.054 13.0262 279.054 14.5622C279.054 16.0022 278.238 17.9702 276.558 18.3542C276.846 18.7382 276.894 18.9782 276.894 19.5062V19.9382H282.222V19.5062C282.222 19.0262 282.27 18.7862 282.558 18.3542C279.678 18.0182 279.63 16.3382 279.63 13.9382V12.4982C279.63 8.70623 280.35 7.98623 284.142 7.98623H287.598C287.934 7.98623 288.414 7.84223 288.414 7.41023V7.26623C288.414 6.83423 287.982 6.69023 287.598 6.69023H281.31C279.822 6.69023 278.958 6.11423 278.958 4.53023C278.958 2.89823 279.822 2.37023 281.31 2.37023H289.854C293.262 2.37023 294.366 2.85023 294.366 6.49823V7.93823C294.366 11.5382 293.262 12.0662 289.854 12.0662H286.35C285.822 12.0662 285.534 12.3542 285.534 12.8822V13.5542C285.534 14.5622 286.158 14.6102 287.454 14.6102H288.126C290.046 14.6102 290.142 14.5622 290.478 13.6502C290.814 12.6902 291.438 12.4022 292.398 12.4022C293.838 12.4022 295.95 12.8822 295.95 14.6102C295.95 16.1462 294.894 18.0662 293.118 18.3062C292.11 18.4502 289.614 18.4982 288.558 18.4982ZM262.734 33.5702C262.734 38.5142 267.726 38.9462 271.47 38.9462H292.926C294.99 38.9462 296.382 40.1942 296.382 42.3542C296.382 44.4662 295.086 45.8582 292.878 45.8582H270.99C266.622 45.8582 262.974 44.7542 260.046 41.4422C258.99 42.8342 258.03 43.9862 256.83 45.2822C256.11 46.0022 255.534 46.4342 254.43 46.4342C252.318 46.4342 250.398 44.1782 250.398 42.1142C250.398 40.9142 250.974 40.0022 252.078 39.1862C253.182 38.3702 254.526 37.4102 256.206 36.0182V26.2742C256.206 25.8422 256.158 25.5062 255.582 25.5062H253.998C251.55 25.5062 250.59 24.2582 250.59 21.9062C250.59 19.6022 251.742 18.5462 253.998 18.5462H256.782C261.774 18.5462 262.734 19.4582 262.734 24.4502V33.5702ZM282.222 24.5942H276.894V26.5142H282.222V24.5942Z" fill="#494949"/>
<path d="M221.31 13.0742L219.342 16.1462C220.926 15.7622 222.51 15.6182 224.094 15.6182C228.222 15.6182 232.83 16.4822 233.982 21.0902C235.662 20.7062 240.366 19.9862 240.942 19.9862C242.67 19.9862 244.11 21.5702 244.11 23.2982C244.11 25.6022 242.334 26.3702 240.414 26.7542C238.398 27.1382 236.43 27.4742 234.414 27.9062L234.51 31.9862C234.51 33.6182 233.31 35.2502 231.294 35.2502C229.47 35.2502 227.982 34.3382 227.982 31.9382V29.2982C225.342 30.0182 218.814 31.5062 218.814 35.0102C218.814 38.2262 224.43 38.6582 226.734 38.6582C230.814 38.6582 233.934 37.8422 237.774 36.5462C238.254 36.4022 238.782 36.3062 239.31 36.3062C241.086 36.3062 242.43 37.9862 242.43 39.6662C242.43 42.2582 239.55 43.1702 237.534 43.7942C234.078 44.8502 230.43 45.2822 226.83 45.2822C220.35 45.2822 211.47 43.2182 211.47 35.1062C211.47 30.8342 214.302 27.8582 217.902 25.9382C220.782 24.3542 224.094 23.5862 227.262 22.7702C226.398 21.5702 224.046 21.4742 222.702 21.4742C219.726 21.4742 216.606 22.3862 214.398 24.4502C213.006 25.7942 212.046 27.3782 211.038 28.9622L210.174 30.3542C209.502 31.4102 208.446 32.1302 207.198 32.1302C205.374 32.1302 203.79 30.5462 203.79 28.7222C203.79 27.8582 204.174 27.0902 204.654 26.3702L213.198 13.1702H206.046C204.222 13.1702 202.734 11.9702 202.734 9.90621C202.734 8.08221 204.03 6.59421 206.094 6.59421H217.134L218.862 3.95421C219.486 2.99421 220.686 2.41821 221.79 2.41821C223.662 2.41821 225.342 3.95421 225.342 5.82621C225.342 6.06621 225.294 6.35421 225.246 6.59421H238.302C240.03 6.59421 241.566 8.08221 241.566 9.85821C241.566 11.6342 240.078 13.0742 238.302 13.0742H221.31Z" fill="#494949"/>
<path d="M164.483 29.2022V43.4582C164.483 46.3382 163.139 46.9622 160.499 46.9622C158.099 46.9622 157.187 45.7142 157.187 43.4582V31.2182C156.227 31.9862 155.315 32.6582 154.067 32.6582C152.003 32.6582 150.227 30.4982 150.227 28.4822C150.227 26.6102 150.851 26.0822 154.451 23.4902C157.235 21.4742 159.443 19.2182 161.171 16.3862C161.459 15.9542 161.747 15.4262 161.747 15.2342C161.747 14.7542 161.267 14.6582 160.883 14.6582H154.307C151.811 14.6582 150.755 13.6022 150.755 11.1062C150.755 8.80222 152.147 7.89022 154.307 7.89022H157.187V4.57822C157.187 1.84222 158.483 1.07422 161.075 1.07422C163.475 1.07422 164.483 2.27422 164.483 4.57822V7.89022H165.491C168.419 7.89022 170.003 9.37822 170.003 12.3062C170.003 15.8102 167.939 18.9782 165.971 21.7622C166.931 22.9142 168.083 23.9222 169.187 24.9782C170.963 26.6102 171.635 27.3302 171.635 28.3862C171.635 30.1142 170.099 31.9862 168.275 31.9862C166.595 31.9862 165.539 30.5942 164.483 29.2022ZM186.083 13.2182H191.843C194.627 13.2182 195.587 14.4182 195.587 17.1062C195.587 19.6502 194.195 20.5622 191.843 20.5622H186.083V38.4662H192.515C195.251 38.4662 196.211 39.6182 196.211 42.3062C196.211 44.8022 194.819 45.6662 192.515 45.6662H171.587C168.803 45.6662 167.411 44.7542 167.411 41.8742C167.411 39.1862 169.235 38.4662 171.587 38.4662H178.595V20.5622H172.931C170.243 20.5622 169.379 19.2662 169.379 16.6742C169.379 14.4182 170.579 13.2182 172.931 13.2182H178.595V4.72222C178.595 1.89022 179.987 1.21822 182.627 1.21822C185.027 1.21822 186.083 2.37022 186.083 4.72222V13.2182Z" fill="#494949"/>
<path d="M110.816 17.6824C109.232 18.6424 106.112 20.3704 104.336 20.3704C102.08 20.3704 100.688 18.1624 100.688 16.0984C100.688 14.1784 101.648 13.4584 103.28 12.7864C109.328 10.3864 113.168 7.89038 117.92 3.37838C119.792 1.60238 120.992 0.786377 123.68 0.786377C126.32 0.786377 127.568 1.55438 129.392 3.33038C134.288 7.98638 137.792 10.2904 144.08 12.8344C145.76 13.5064 146.672 14.1784 146.672 16.1464C146.672 18.2104 145.232 20.4184 142.976 20.4184C141.248 20.4184 138.08 18.5944 136.544 17.6824C136.16 19.5544 134.864 20.0344 133.136 20.0344H114.224C112.544 20.0344 111.2 19.5544 110.816 17.6824ZM116.864 13.6024H130.544C128.432 11.9224 126.656 10.3384 124.784 8.37038C124.496 8.08238 124.112 7.74638 123.68 7.74638C123.248 7.74638 122.672 8.37038 122.288 8.75438C120.56 10.4824 118.784 12.1144 116.864 13.6024ZM136.736 43.5064C130.352 44.2744 123.872 44.6584 117.536 45.0904C115.856 45.1864 106.832 45.7624 105.92 45.7624C103.424 45.7624 102.368 44.4664 102.368 42.0184C102.368 38.6104 104.576 38.5144 107.504 38.5144C108.032 38.5144 108.608 38.5144 109.184 38.5144C110.528 35.8264 111.775 33.0904 112.688 30.2584H105.392C102.8 30.2584 101.84 29.1064 101.84 26.6104C101.84 24.2584 103.136 23.2984 105.392 23.2984H141.92C144.416 23.2984 145.424 24.4504 145.424 26.9464C145.424 29.2984 144.128 30.2584 141.92 30.2584H135.2C136.544 31.1224 138.944 33.9064 140.048 35.2504C141.344 36.7864 142.592 38.3704 143.743 40.0024C144.32 40.8184 144.752 41.6344 144.752 42.6424C144.752 44.8504 142.16 46.4824 140.144 46.4824C138.944 46.4824 138.368 45.9064 137.743 45.0424C137.456 44.6104 137.168 44.0824 136.736 43.5064ZM132.416 37.6024C131.408 36.4504 129.488 34.6264 129.488 33.0904C129.488 31.7464 130.64 30.7864 131.792 30.2584H120.656C119.504 32.9944 118.256 35.6824 116.864 38.2744C122.048 38.1304 127.232 37.8904 132.416 37.6024Z" fill="#494949"/>
<path d="M75.7744 34.0503H73.2304C71.2624 34.0503 68.9584 33.9543 68.1424 31.7943C67.8544 35.4903 66.5104 37.6023 62.5264 37.6023C61.1344 37.6023 59.5984 37.2663 59.0224 35.8263V43.4583C59.0224 45.9063 57.9664 46.9623 55.5184 46.9623C53.2144 46.9623 52.3984 45.5703 52.3984 43.4583V8.17831C52.3984 3.13831 53.3584 2.27431 58.3984 2.27431H61.7584C65.7424 2.27431 67.6624 2.70631 67.6624 7.21832C67.6624 8.13031 67.5664 9.18631 67.4224 10.0983C71.8864 7.55431 72.7024 6.97831 76.3984 3.33031C77.9824 1.74632 79.0864 1.12231 81.3424 1.12231C83.6464 1.12231 84.8464 1.55431 86.3824 3.23432C89.8864 6.93031 91.0384 7.65031 95.2624 10.3383C96.3664 11.0583 96.9424 11.9703 96.9424 13.2663C96.9424 15.2343 95.5984 17.2983 93.4864 17.2983C92.4784 17.2983 91.3264 16.5303 89.9344 15.5703C89.5984 17.0103 88.4464 17.3463 87.1024 17.3463H84.5104V19.1703H88.8784C93.8704 19.1703 94.7824 20.1303 94.7824 25.1223V28.1463C94.7824 33.1383 93.8224 34.0503 88.8784 34.0503H86.7184C88.8784 37.4583 91.1344 38.3223 94.5904 39.9063C96.0304 40.5303 96.7984 41.2983 96.7984 42.9303C96.7984 44.8503 95.5024 46.8183 93.3904 46.8183C91.3744 46.8183 88.4464 44.9943 86.8624 43.7943C84.5104 42.0183 82.8304 40.0503 81.2944 37.5063C79.5664 40.4823 77.1184 42.9783 74.2384 44.8023C72.8944 45.6183 70.5904 46.8183 69.0544 46.8183C66.8944 46.8183 65.5504 44.8503 65.5504 42.8823C65.5504 41.0103 66.5104 40.2423 68.0944 39.6663C71.5024 38.3703 73.8544 37.2663 75.7744 34.0503ZM77.8384 11.4903H84.9904C83.8384 10.2423 82.9264 9.18631 82.2544 8.41832C81.8704 7.98632 81.6304 7.84231 81.4864 7.84231C81.1984 7.84231 81.0064 8.08231 80.8144 8.32232C79.8544 9.52231 78.9424 10.4343 77.8384 11.4903ZM59.0224 31.6983C59.3584 30.9303 59.5984 30.8343 60.4144 30.6423C61.3264 30.4503 61.8064 30.0663 61.8064 28.1463C61.8064 25.5063 60.8944 22.6743 59.7904 20.8503C59.4544 20.2743 59.2144 19.7463 59.2144 19.3623C59.2144 18.9303 59.4064 18.0183 59.9344 16.4343C60.2704 15.3783 61.6144 10.6743 61.6144 9.81031C61.6144 9.37831 61.3264 9.09031 60.7504 9.09031H59.8864C59.3104 9.09031 59.0224 9.37831 59.0224 9.95432V31.6983ZM77.8864 19.1703V17.3463H75.1024C73.8544 17.3463 72.9904 17.1063 72.3664 15.9063C71.4064 16.5783 70.2064 17.3943 69.0064 17.3943C67.6624 17.3943 66.6064 16.3863 65.9824 15.2823C65.8384 15.8103 64.8784 18.5463 64.8784 18.8823C64.8784 19.2183 65.0704 19.5543 65.3584 19.9383C66.6064 21.5703 67.3744 23.8743 67.8064 26.1303V25.1223C67.8064 20.1303 68.7184 19.1703 73.7104 19.1703H77.8864ZM84.3184 28.2423H87.8224C88.3984 28.2423 88.6864 27.9543 88.6864 27.3783V25.8423C88.6864 25.3143 88.3984 24.9783 87.8224 24.9783H84.5104C84.5104 26.0823 84.4144 27.1383 84.3184 28.2423ZM77.6944 28.2423C77.8384 27.1383 77.8864 26.0823 77.8864 24.9783H74.7184C74.1424 24.9783 73.8544 25.2663 73.8544 25.8423V27.3783C73.8544 27.9543 74.1424 28.2423 74.7184 28.2423H77.6944Z" fill="#494949"/>
<path d="M12.2723 14.3223V43.4583C12.2723 45.8583 11.1683 47.0103 8.72031 47.0103C6.41631 47.0103 5.40831 45.6663 5.40831 43.4583V26.1303C4.97631 26.2743 4.64031 26.3703 4.16031 26.3703C1.85631 26.3703 0.320312 24.1623 0.320312 22.0023C0.320312 20.4183 1.04031 19.4103 1.90431 18.2103C4.64031 14.3703 6.70431 9.28231 7.71231 4.5303C8.14431 2.41831 8.76831 1.3623 11.1203 1.3623C12.9923 1.3623 14.8643 2.0823 14.8643 4.2423C14.8643 6.35431 13.4243 11.3943 12.2723 14.3223ZM26.5763 35.1063C24.7523 37.5543 23.1203 39.5223 20.9123 41.6343C19.3283 43.1703 17.8883 44.4663 16.3523 44.4663C14.3843 44.4663 12.8003 42.4503 12.8003 40.5303C12.8003 38.9943 13.8563 38.1303 15.0083 37.3143C18.8963 34.6263 20.8643 32.8503 23.6963 28.9623H17.0243C14.6243 28.9623 13.5203 27.9543 13.5203 25.5063C13.5203 23.2503 14.9123 22.3383 17.0243 22.3383H26.5763V19.3623H21.9683C17.8403 19.3623 16.1603 17.6823 16.1603 13.5543V8.41831C16.1603 4.29031 17.8403 2.61031 21.9683 2.61031H38.1923C42.3203 2.61031 44.0003 4.29031 44.0003 8.41831V13.5543C44.0003 17.6823 42.3203 19.3623 38.1923 19.3623H33.3923V22.3383H42.8963C45.2963 22.3383 46.4483 23.3463 46.4483 25.7943C46.4483 28.0503 45.0083 28.9623 42.8963 28.9623H36.5123C39.2483 32.8983 41.5043 35.0583 45.0563 38.0823C45.8723 38.7543 46.4003 39.4263 46.4003 40.5303C46.4003 42.4503 44.5763 44.5143 42.5603 44.5143C40.6403 44.5143 38.3843 41.6343 37.2323 40.1943C35.8883 38.5143 34.5443 36.5943 33.3923 34.7223V43.4103C33.3923 45.9063 32.2883 46.9143 29.8403 46.9143C27.4883 46.9143 26.5763 45.6183 26.5763 43.4103V35.1063ZM35.5043 8.61031H24.6083C23.6963 8.61031 23.2643 9.04231 23.2643 9.95431V12.1623C23.2643 13.0743 23.6963 13.5063 24.6083 13.5063H35.5043C36.4163 13.5063 36.8483 13.0743 36.8483 12.1623V9.95431C36.8483 9.04231 36.4163 8.61031 35.5043 8.61031Z" fill="#494949"/>
</svg>
